<?xml version="1.0" standalone="no"?>
<!DOCTYPE svg PUBLIC "-//W3C//DTD SVG 20010904//EN"
 "http://www.w3.org/TR/2001/REC-SVG-20010904/DTD/svg10.dtd">
<svg version="1.0" xmlns="http://www.w3.org/2000/svg"
 width="1191.000000pt" height="526.000000pt" viewBox="0 0 1191.000000 526.000000"
 preserveAspectRatio="xMidYMid meet">
<metadata>
Created by potrace 1.15, written by Peter Selinger 2001-2017
</metadata>
<g transform="translate(0.000000,526.000000) scale(0.100000,-0.100000)"
fill="#000000" stroke="none">
<path d="M5187 5182 c-38 -14 -63 -28 -57 -32 16 -10 100 -239 100 -275 0 -19
3 -25 8 -17 6 9 12 6 20 -12 l11 -24 71 26 c39 15 66 28 58 30 -7 1 -40 77
-73 167 -32 91 -62 164 -65 164 -3 -1 -36 -13 -73 -27z"/>
<path d="M4965 5100 c-38 -16 -63 -29 -55 -29 10 -1 30 -42 59 -122 62 -169
92 -200 171 -179 41 11 90 45 90 63 0 8 -4 7 -12 -1 -18 -18 -46 -14 -58 8 -6
11 -33 79 -59 152 -27 73 -53 133 -57 134 -5 1 -40 -11 -79 -26z"/>
<path d="M4670 4996 c-31 -11 -32 -13 -12 -18 22 -6 62 -79 77 -138 6 -24 1
-28 -49 -49 -71 -29 -110 -73 -102 -115 14 -69 67 -91 145 -60 41 16 62 43 33
40 -20 -1 -51 58 -52 101 0 22 6 36 19 43 17 9 21 4 35 -37 9 -26 16 -58 16
-72 0 -19 3 -22 9 -12 6 9 11 10 15 2 4 -6 26 -11 50 -11 50 0 110 35 113 65
2 11 0 14 -3 8 -11 -26 -36 -12 -53 30 -10 23 -31 74 -45 114 -35 92 -65 123
-120 122 -22 0 -57 -6 -76 -13z"/>
<path d="M3873 4931 c-40 -14 -75 -30 -80 -34 -4 -5 4 -4 19 2 21 8 28 7 33
-7 11 -28 76 -207 76 -209 0 -2 8 -21 18 -44 10 -22 32 -80 47 -128 16 -47 34
-92 41 -98 6 -7 13 -18 15 -24 3 -8 23 -5 65 11 l61 22 -33 92 c-127 348 -164
441 -176 443 -8 1 -46 -11 -86 -26z"/>
<path d="M4307 4873 c-17 -4 -17 -6 3 -20 23 -16 59 -86 60 -115 0 -14 -44
-38 -70 -38 -4 0 -15 25 -25 56 -13 43 -15 61 -6 80 15 34 0 30 -51 -16 -72
-63 -81 -143 -27 -241 26 -47 91 -89 139 -89 81 0 200 70 200 116 0 16 -3 14
-13 -6 -14 -28 -72 -70 -97 -70 -38 0 -92 64 -114 137 -6 19 1 24 82 53 124
44 121 42 97 86 -33 62 -100 87 -178 67z"/>
<path d="M3802 4683 c-76 -37 -95 -98 -63 -203 45 -148 149 -201 241 -123 17
14 30 30 30 35 0 6 -9 3 -20 -7 -39 -36 -69 3 -120 153 -38 113 -37 148 8 155
23 3 22 4 -8 5 -19 1 -50 -6 -68 -15z"/>
<path d="M3460 4556 c-31 -11 -32 -13 -12 -18 22 -6 62 -79 77 -138 6 -24 1
-28 -49 -49 -71 -29 -110 -73 -102 -115 14 -69 67 -91 145 -60 41 16 62 43 33
40 -20 -1 -51 58 -52 101 0 22 6 36 19 43 17 9 21 4 35 -37 9 -26 16 -58 16
-72 0 -19 3 -22 9 -12 6 9 11 10 15 2 4 -6 26 -11 50 -11 50 0 110 35 113 65
2 11 0 14 -3 8 -11 -26 -36 -12 -53 30 -10 23 -31 74 -45 114 -35 92 -65 123
-120 122 -22 0 -57 -6 -76 -13z"/>
<path d="M3074 4414 c-17 -8 -46 -30 -64 -49 -27 -28 -34 -44 -38 -89 -5 -62
10 -117 45 -164 50 -66 129 -80 220 -37 61 28 94 72 92 125 -1 34 -2 34 -8 -7
-12 -72 -80 -120 -130 -93 -25 13 -55 70 -87 164 -29 85 -30 120 -4 146 24 24
16 25 -26 4z"/>
<path d="M2183 4301 c-76 -28 -99 -41 -61 -34 22 4 29 -11 116 -249 51 -139
92 -259 92 -267 0 -7 6 -11 13 -8 6 2 40 15 75 27 35 13 59 26 54 29 -5 3 -52
123 -104 266 -53 142 -99 260 -104 261 -5 1 -41 -10 -81 -25z"/>
<path d="M6149 4241 c-38 -20 -179 -149 -179 -164 0 -7 -44 -72 -60 -87 -9 -9
-28 -55 -59 -141 -26 -75 -29 -94 -22 -143 4 -31 10 -58 13 -61 3 -3 8 34 11
82 6 78 12 98 54 182 56 113 100 170 206 274 44 42 79 77 76 77 -2 0 -20 -9
-40 -19z"/>
<path d="M2607 4243 c-17 -4 -17 -6 3 -20 23 -16 59 -86 60 -115 0 -14 -44
-38 -70 -38 -4 0 -15 25 -25 56 -13 43 -15 61 -6 80 15 34 0 30 -51 -16 -72
-63 -81 -143 -27 -241 26 -47 91 -89 139 -89 81 0 200 70 200 116 0 16 -3 14
-13 -6 -14 -28 -72 -70 -97 -70 -38 0 -92 64 -114 137 -6 19 1 24 82 53 124
44 121 42 97 86 -33 62 -100 87 -178 67z"/>
<path d="M1905 3969 c-75 -28 -117 -50 -67 -35 12 4 22 4 22 -1 0 -4 -12 -90
-26 -191 -15 -101 -24 -186 -21 -189 3 -3 40 7 82 22 45 17 71 31 64 35 -9 6
-5 53 15 191 14 101 26 187 26 192 0 11 -7 9 -95 -24z"/>
<path d="M6816 3988 c3 -4 17 -8 31 -8 40 0 164 -41 216 -72 26 -15 54 -28 60
-28 23 0 109 -60 104 -73 -2 -6 -16 -13 -30 -15 -15 -2 -27 -9 -27 -15 1 -17
76 -67 100 -67 11 0 20 -3 20 -8 0 -12 102 -88 129 -97 14 -4 46 -22 71 -39
67 -45 88 -56 108 -56 10 0 43 -12 73 -26 43 -21 70 -27 137 -28 78 -1 81 0
50 13 -18 7 -52 22 -76 32 -23 11 -51 19 -60 19 -10 0 -27 7 -38 15 -10 8 -27
15 -36 15 -9 0 -21 6 -25 13 -14 25 -61 49 -81 43 -26 -8 -92 30 -92 53 0 10
-11 28 -25 41 -20 18 -28 21 -37 12 -17 -17 -35 -15 -71 11 -44 31 -50 41 -27
51 11 5 20 14 20 20 0 12 -123 106 -139 106 -5 0 -25 9 -43 19 -18 10 -49 22
-68 26 -19 4 -39 11 -45 15 -25 19 -209 45 -199 28z"/>
<path d="M3758 3875 c-27 -20 -48 -40 -48 -45 0 -6 7 -27 15 -47 12 -29 13
-38 3 -45 -10 -6 -9 -8 2 -8 10 0 28 -37 54 -108 56 -155 70 -178 109 -191 69
-23 179 35 176 93 -2 21 -2 21 -6 -1 -6 -29 -27 -45 -55 -41 -24 3 -43 42
-104 216 -25 72 -27 84 -14 93 13 8 12 9 -4 7 -14 -2 -23 10 -39 55 -12 31
-26 57 -31 57 -6 0 -32 -16 -58 -35z"/>
<path d="M3486 3859 c-30 -24 -34 -63 -10 -97 34 -48 134 -12 134 49 0 62 -71
90 -124 48z"/>
<path d="M1487 3833 c-17 -4 -17 -6 3 -20 23 -16 59 -86 60 -115 0 -14 -44
-38 -70 -38 -4 0 -15 25 -25 56 -13 43 -15 61 -6 80 15 34 0 30 -51 -16 -72
-63 -81 -143 -27 -241 26 -47 91 -89 139 -89 81 0 200 70 200 116 0 16 -3 14
-13 -6 -14 -28 -72 -70 -97 -70 -38 0 -92 64 -114 137 -6 19 1 24 82 53 124
44 121 42 97 86 -33 62 -100 87 -178 67z"/>
<path d="M3561 3682 c-41 -15 -68 -28 -59 -30 9 -2 21 -15 27 -30 39 -100 101
-276 101 -289 0 -8 6 -13 13 -10 6 2 40 15 75 27 35 13 59 26 54 29 -5 3 -35
79 -68 168 -32 90 -61 163 -64 162 -3 0 -38 -12 -79 -27z"/>
<path d="M1107 3693 c-17 -4 -17 -6 3 -20 23 -16 59 -86 60 -115 0 -14 -44
-38 -70 -38 -4 0 -15 25 -25 56 -13 43 -15 61 -6 80 15 34 0 30 -51 -16 -72
-63 -81 -143 -27 -241 26 -47 91 -89 139 -89 81 0 200 70 200 116 0 16 -3 14
-13 -6 -14 -28 -72 -70 -97 -70 -38 0 -92 64 -114 137 -6 19 1 24 82 53 124
44 121 42 97 86 -33 62 -100 87 -178 67z"/>
<path d="M2872 3669 c-18 -12 -39 -34 -47 -50 -18 -33 -20 -123 -4 -169 9 -26
9 -34 -2 -41 -11 -7 -11 -9 2 -9 9 0 21 -12 27 -27 40 -100 102 -277 102 -290
0 -8 6 -13 13 -10 6 2 40 15 75 27 35 13 59 26 54 29 -5 3 -35 77 -67 164 -48
132 -56 161 -44 169 11 8 11 9 -2 5 -13 -4 -22 10 -42 66 -38 109 -39 115 -27
137 14 25 4 25 -38 -1z"/>
<path d="M400 3602 c0 -6 -21 -14 -47 -17 -133 -17 -218 -66 -259 -150 -23
-49 -26 -64 -22 -128 5 -82 41 -173 86 -220 84 -89 221 -90 363 -2 33 20 63
34 68 31 5 -4 -3 30 -17 74 l-26 81 -16 -73 c-9 -40 -21 -83 -28 -95 -34 -61
-110 -71 -167 -22 -64 57 -145 260 -145 366 0 47 4 59 29 84 50 49 136 33 205
-40 17 -17 33 -31 37 -31 4 0 -5 32 -22 72 -30 74 -39 89 -39 70z"/>
<path d="M3260 3576 c-31 -11 -32 -13 -12 -18 22 -6 62 -79 77 -138 6 -24 1
-28 -49 -49 -71 -29 -110 -73 -102 -115 14 -69 67 -91 145 -60 41 16 62 43 33
40 -20 -1 -51 58 -52 101 0 22 6 36 19 43 17 9 21 4 35 -37 9 -26 16 -58 16
-72 0 -19 3 -22 9 -12 6 9 11 10 15 2 4 -6 26 -11 50 -11 50 0 110 35 113 65
2 11 0 14 -3 8 -11 -26 -36 -12 -53 30 -10 23 -31 74 -45 114 -35 92 -65 123
-120 122 -22 0 -57 -6 -76 -13z"/>
<path d="M631 3502 c-41 -15 -68 -28 -59 -30 9 -2 21 -15 27 -30 39 -100 101
-276 101 -289 0 -8 6 -13 13 -10 6 2 40 15 75 27 35 13 59 26 54 29 -15 10
-92 230 -92 264 0 22 -3 28 -9 18 -7 -10 -11 -5 -16 18 -3 17 -10 31 -13 30
-4 0 -40 -12 -81 -27z"/>
<path d="M7446 3442 c6 -19 130 -82 264 -133 63 -24 90 -30 118 -25 44 8 51
10 77 22 11 5 51 9 90 8 38 0 64 1 57 4 -6 2 -12 10 -12 18 0 18 46 19 53 1 4
-10 19 -12 63 -6 33 4 67 8 78 8 15 1 16 4 6 16 -21 25 -6 27 46 5 37 -15 41
-19 17 -15 -21 4 -34 2 -40 -8 -4 -8 -15 -17 -23 -20 -8 -3 10 -5 40 -4 35 1
68 -5 92 -17 20 -10 45 -15 56 -12 11 4 24 0 32 -9 7 -8 21 -15 31 -15 28 0
23 -17 -8 -32 -16 -7 -28 -19 -28 -26 0 -14 -23 -32 -41 -32 -8 0 -10 13 -7
36 4 30 2 35 -14 33 -10 -1 -42 1 -71 5 -41 6 -58 4 -77 -8 -13 -9 -33 -16
-45 -16 -11 0 -20 -6 -20 -13 0 -41 -47 -87 -88 -87 -7 0 -35 -21 -60 -47 -26
-25 -67 -55 -92 -66 -25 -11 -65 -35 -89 -54 -24 -18 -50 -33 -58 -33 -17 0
-53 -21 -73 -42 -8 -10 -40 -29 -70 -44 -30 -15 -77 -44 -105 -65 -27 -21 -62
-40 -76 -44 -15 -4 -42 -22 -60 -41 -18 -19 -39 -34 -46 -34 -7 0 -13 -4 -13
-10 0 -5 -7 -10 -16 -10 -18 0 -137 -81 -130 -88 9 -8 93 36 99 52 4 9 16 16
27 16 11 0 20 5 20 10 0 6 5 10 12 10 18 0 88 33 88 42 0 4 33 23 74 43 40 19
78 40 84 48 6 7 39 26 74 42 35 17 66 35 71 42 4 6 41 28 82 48 41 19 78 41
82 48 4 7 38 27 75 44 36 18 70 38 75 45 14 23 112 60 141 53 21 -5 24 -4 14
8 -14 17 -3 30 41 46 36 14 67 -1 67 -31 0 -12 -3 -19 -6 -16 -10 11 -144 -62
-144 -77 0 -8 -6 -15 -13 -15 -7 0 -32 -9 -55 -20 -22 -11 -48 -20 -55 -20 -8
0 -18 -11 -21 -25 -4 -16 -13 -25 -26 -25 -11 0 -20 -4 -20 -10 0 -5 -5 -10
-11 -10 -22 0 -99 -41 -99 -53 0 -6 7 -20 14 -30 13 -16 16 -16 60 3 41 19 50
29 48 51 -1 3 10 4 23 1 14 -2 25 0 25 5 0 5 23 17 50 28 28 11 52 26 55 35 3
8 35 28 72 44 38 16 74 37 81 47 7 11 18 19 23 19 6 0 29 9 51 20 23 11 47 20
54 20 7 0 15 9 19 19 3 10 16 21 28 24 12 2 29 7 37 10 8 4 24 0 34 -8 25 -19
13 -33 -69 -76 -36 -18 -65 -37 -65 -41 0 -4 -33 -23 -74 -42 -40 -19 -76 -42
-79 -51 -4 -8 -13 -15 -22 -15 -8 0 -15 -4 -15 -8 0 -4 -23 -16 -50 -27 -28
-11 -52 -26 -55 -35 -3 -8 -38 -31 -77 -50 -80 -39 -103 -67 -47 -55 19 3 47
20 62 36 15 17 33 29 40 26 6 -2 18 2 25 10 7 7 24 13 37 13 23 0 65 34 65 53
0 5 6 7 14 4 8 -3 19 0 25 7 7 8 25 16 42 20 17 3 40 17 51 31 11 14 28 25 39
25 11 0 19 7 19 16 0 10 6 14 14 11 16 -6 66 13 66 26 0 4 7 7 15 7 8 0 15 7
15 15 0 8 7 15 15 15 23 0 18 -28 -7 -36 -20 -6 -20 -7 -3 -16 21 -12 83 4
131 33 41 25 47 24 88 -12 25 -22 41 -29 56 -24 12 4 20 2 20 -5 0 -6 7 -18
15 -26 8 -9 15 -26 15 -40 0 -15 6 -24 15 -24 25 0 18 50 -15 110 -16 30 -34
66 -40 79 -6 14 -20 31 -30 38 -11 8 -20 21 -20 30 0 8 -13 28 -30 43 -24 22
-27 30 -17 39 10 8 26 6 60 -7 25 -10 49 -21 53 -25 4 -4 14 -7 22 -7 8 0 30
-11 49 -26 42 -32 43 -14 2 26 -18 16 -27 30 -21 30 6 0 30 -18 53 -40 24 -22
47 -40 51 -40 5 0 34 -20 66 -45 31 -25 62 -45 67 -45 6 0 25 -16 42 -35 46
-50 83 -42 83 17 0 22 -7 31 -32 42 -57 25 -64 32 -49 50 11 13 11 16 -2 16
-8 0 -18 -8 -21 -17 -5 -12 -9 -14 -18 -5 -7 7 -19 12 -28 12 -9 0 -31 13 -48
29 l-32 28 52 -1 c49 -1 53 -3 50 -23 -2 -13 2 -23 7 -23 6 0 11 7 11 15 0 17
26 20 35 5 4 -6 16 -8 26 -5 11 4 27 1 35 -6 17 -14 20 -12 29 23 6 23 2 30
-29 50 -35 23 -49 42 -22 32 8 -3 16 4 19 17 6 22 25 23 70 4 12 -5 17 -3 17
8 0 15 -7 19 -65 40 -34 12 -285 16 -285 5 0 -8 -83 -9 -112 -1 -25 6 -22 21
5 26 12 2 0 5 -26 6 -27 0 -57 -4 -67 -9 -22 -12 -60 6 -60 28 0 8 -12 4 -33
-12 -42 -32 -58 -33 -56 -3 3 38 -1 57 -12 57 -8 0 -10 -18 -7 -55 4 -51 3
-56 -15 -53 -19 3 -35 39 -52 122 -6 27 -7 28 -25 11 -11 -10 -22 -25 -25 -35
-3 -9 -21 -24 -39 -33 -32 -15 -37 -15 -75 4 -22 10 -47 19 -55 19 -8 0 -17 4
-21 9 -3 5 -18 9 -33 9 -33 -1 -93 11 -107 22 -5 4 -30 11 -55 14 l-45 7 48
-22 c57 -26 62 -43 10 -32 -21 4 -68 8 -106 7 -61 -1 -67 1 -62 17 5 13 1 19
-10 19 -9 0 -15 -7 -13 -16 2 -10 -3 -19 -9 -21 -7 -3 -13 2 -13 11 0 13 -5
12 -34 -5 -24 -14 -43 -18 -63 -13 -19 4 -25 3 -18 -4 6 -5 19 -12 30 -15 11
-2 -14 -5 -54 -5 -75 -1 -111 9 -111 30 0 10 59 6 94 -8 9 -3 16 -1 16 5 0 6
-9 11 -19 11 -11 0 -23 5 -26 10 -7 11 -47 5 -83 -13 -17 -8 -25 -8 -34 1 -7
7 -24 12 -39 12 -15 0 -43 7 -62 15 -47 19 -56 19 -51 -3z"/>
<path d="M2511 3292 c-41 -15 -68 -28 -59 -30 9 -2 21 -15 27 -30 39 -100 101
-276 101 -289 0 -8 6 -13 13 -10 6 2 40 15 75 27 35 13 59 26 54 29 -15 10
-92 230 -92 264 0 22 -3 28 -9 18 -7 -10 -11 -5 -16 18 -3 17 -10 31 -13 30
-4 0 -40 -12 -81 -27z"/>
<path d="M9337 3243 c-14 -13 -6 -34 16 -43 12 -6 37 -19 55 -30 18 -11 38
-18 43 -14 9 5 24 0 123 -47 22 -11 46 -19 53 -19 7 0 43 -13 80 -30 36 -16
76 -30 89 -30 12 0 26 -4 29 -10 10 -17 25 -11 25 10 0 11 -7 20 -15 20 -8 0
-23 4 -33 10 -26 15 -103 47 -168 71 -33 12 -63 25 -69 29 -5 4 -22 10 -36 14
-15 3 -61 22 -102 41 -82 38 -81 38 -90 28z"/>
<path d="M2210 3186 c-31 -11 -32 -13 -12 -18 22 -6 62 -79 77 -138 6 -24 1
-28 -49 -49 -71 -29 -110 -73 -102 -115 14 -69 67 -91 145 -60 41 16 62 43 33
40 -20 -1 -51 58 -52 101 0 22 6 36 19 43 17 9 21 4 35 -37 9 -26 16 -58 16
-72 0 -19 3 -22 9 -12 6 9 11 10 15 2 4 -6 26 -11 50 -11 50 0 110 35 113 65
2 11 0 14 -3 8 -11 -26 -36 -12 -53 30 -10 23 -31 74 -45 114 -35 92 -65 123
-120 122 -22 0 -57 -6 -76 -13z"/>
<path d="M1865 3065 c-22 -8 -41 -15 -43 -15 -2 0 -12 -19 -22 -42 -11 -24
-20 -38 -20 -32 0 5 -6 18 -12 27 -12 16 -18 15 -88 -12 -41 -17 -68 -30 -59
-30 19 -1 14 11 119 -275 63 -171 78 -221 68 -229 -9 -6 -6 -7 7 -2 11 4 46
16 78 27 31 11 57 24 57 28 0 5 -16 50 -35 100 -19 50 -35 93 -35 96 0 2 11
-1 25 -8 19 -9 34 -7 68 6 97 37 127 110 88 220 -25 73 -64 124 -107 142 -40
17 -39 17 -89 -1z m12 -74 c26 -39 83 -205 83 -243 0 -17 -8 -31 -21 -38 -35
-19 -63 10 -99 102 -40 103 -49 177 -25 202 22 22 35 17 62 -23z"/>
<path d="M9865 3019 c-4 -6 -5 -11 -4 -13 27 -19 84 -46 99 -46 20 0 126 -53
151 -76 8 -8 23 -14 32 -14 9 0 31 -8 49 -19 85 -48 98 -57 98 -63 0 -5 10 -8
23 -8 13 0 59 -25 102 -55 44 -30 85 -55 92 -55 6 0 40 -27 75 -60 34 -33 68
-60 74 -60 13 0 104 -97 104 -111 0 -5 7 -9 15 -9 8 0 31 -23 52 -50 20 -28
44 -52 53 -55 8 -3 31 -28 50 -55 19 -27 40 -50 45 -50 12 0 65 -65 65 -79 0
-6 5 -11 10 -11 6 0 10 -9 10 -20 0 -13 7 -20 18 -20 22 0 106 -115 99 -135
-4 -8 1 -11 13 -8 13 3 28 -9 54 -44 20 -26 40 -53 46 -60 5 -7 10 -19 10 -27
0 -8 9 -17 19 -21 19 -6 90 -100 104 -137 3 -10 12 -18 20 -18 7 0 22 -17 33
-37 10 -20 23 -45 29 -55 5 -10 13 -18 17 -18 5 0 8 -9 8 -20 0 -11 7 -20 15
-20 8 0 29 -30 47 -70 18 -38 38 -69 45 -70 6 0 26 -28 43 -62 32 -64 62 -124
86 -168 8 -14 21 -40 29 -58 16 -33 35 -35 35 -4 0 15 -43 105 -121 252 -13
25 -36 61 -51 81 -16 20 -28 39 -28 42 0 8 -223 339 -293 433 -56 76 -192 246
-224 279 -11 11 -24 28 -29 37 -5 9 -30 39 -56 66 -27 28 -48 54 -48 58 0 3
-24 30 -52 59 -29 29 -66 66 -83 84 -94 98 -206 192 -255 214 -8 4 -44 26 -80
48 -36 23 -92 57 -125 76 -73 41 -323 162 -410 198 -22 10 -53 23 -69 31 -35
17 -33 17 -41 3z"/>
<path d="M9470 2905 c0 -17 35 -55 51 -55 10 0 44 -13 75 -30 31 -16 61 -27
66 -24 5 3 47 -13 94 -36 47 -23 87 -40 90 -37 3 2 28 -9 57 -24 29 -16 60
-32 70 -35 9 -4 17 -10 17 -15 0 -5 9 -9 21 -9 20 0 123 -51 143 -71 6 -5 17
-9 26 -9 19 0 107 -58 140 -94 14 -14 33 -26 44 -26 19 0 44 -20 98 -77 17
-18 37 -33 44 -33 7 0 27 -20 45 -45 18 -25 43 -52 56 -60 13 -9 35 -33 49
-55 15 -22 32 -40 38 -40 6 0 24 -20 39 -45 16 -24 36 -47 45 -50 9 -3 28 -22
42 -42 14 -20 41 -52 61 -72 19 -20 51 -56 69 -81 18 -25 40 -52 49 -60 9 -8
34 -39 55 -69 22 -29 59 -77 84 -105 24 -28 51 -64 59 -81 9 -16 24 -36 34
-42 15 -11 99 -135 99 -147 0 -2 12 -17 28 -33 15 -17 38 -53 52 -81 14 -29
30 -52 35 -52 10 -1 45 -68 45 -87 0 -5 11 -20 25 -33 14 -13 25 -29 25 -35 0
-17 36 -95 55 -119 8 -11 15 -32 15 -47 0 -15 6 -34 14 -42 15 -15 46 -98 46
-123 0 -9 6 -14 13 -11 15 5 11 71 -7 101 -8 11 -16 36 -20 55 -3 19 -12 42
-20 50 -7 9 -21 40 -32 69 -10 28 -21 52 -26 52 -7 0 -48 81 -48 96 0 4 -9 17
-19 28 -24 26 -61 92 -61 109 0 7 -9 18 -20 24 -11 7 -29 32 -40 55 -28 60
-42 79 -67 101 -13 10 -23 23 -23 29 0 5 -13 29 -28 52 -15 22 -31 49 -35 59
-3 9 -10 17 -15 17 -5 0 -31 34 -57 75 -26 41 -51 75 -55 75 -10 0 -70 86 -70
99 0 5 -7 11 -15 15 -20 7 -19 32 1 40 9 4 14 9 11 13 -4 3 -14 0 -23 -8 -15
-12 -21 -8 -55 31 -22 25 -39 50 -39 56 0 6 12 17 26 24 32 18 48 8 77 -45 12
-22 29 -45 37 -52 12 -10 13 -15 3 -32 -12 -19 -11 -20 16 -15 25 5 32 1 60
-39 17 -25 31 -50 31 -56 0 -6 5 -11 10 -11 6 0 10 -7 10 -16 0 -9 8 -18 18
-21 10 -2 27 -18 38 -35 10 -17 27 -42 37 -57 9 -14 20 -34 23 -43 8 -22 30
-23 50 -4 16 17 19 46 4 46 -5 0 -10 8 -10 18 0 11 -10 23 -22 29 -13 6 -34
33 -48 59 -14 27 -28 51 -32 52 -5 2 -8 12 -8 23 0 12 -7 19 -19 19 -19 0 -71
69 -71 95 0 8 -7 15 -15 15 -18 0 -20 31 -2 49 9 10 7 10 -11 0 -22 -13 -26
-11 -58 26 -18 22 -34 45 -34 51 0 6 -7 17 -15 24 -8 7 -13 16 -10 20 3 5 -5
12 -17 15 -22 7 -67 52 -68 67 0 13 -34 48 -46 48 -6 0 -26 22 -45 50 -19 27
-39 50 -46 50 -6 0 -22 15 -34 33 -13 17 -26 34 -29 37 -4 3 -9 13 -13 23 -3
9 -15 17 -25 17 -10 0 -40 25 -67 55 -28 30 -57 55 -66 55 -9 0 -28 9 -41 20
l-25 19 -12 -26 c-15 -32 5 -52 25 -25 12 15 12 14 7 -6 -4 -18 3 -32 28 -58
18 -19 39 -34 45 -34 7 0 27 -20 45 -45 18 -25 36 -45 41 -45 4 0 8 -7 8 -15
0 -8 8 -15 18 -15 9 0 29 -20 45 -45 16 -25 35 -45 42 -45 7 0 28 -22 46 -50
19 -27 39 -50 45 -50 14 0 54 -43 54 -58 0 -7 7 -15 15 -18 20 -8 19 -27 -3
-47 -23 -21 -32 -21 -32 -2 0 9 -10 19 -23 24 -13 5 -36 28 -52 51 -16 23 -41
48 -57 56 -15 8 -28 18 -28 23 0 5 -20 29 -43 53 -24 23 -52 58 -63 76 -10 17
-23 32 -28 32 -6 0 -34 25 -62 55 -29 30 -56 55 -62 55 -5 0 -41 24 -80 54
-38 30 -80 57 -92 61 -27 9 -138 74 -146 86 -3 5 -15 9 -27 9 -12 1 -40 12
-62 25 -22 14 -50 29 -62 34 -11 5 -24 14 -27 20 -4 6 -13 8 -21 5 -8 -4 -52
12 -97 35 -44 23 -89 41 -98 41 -10 0 -48 15 -84 34 -37 19 -73 33 -80 30 -7
-3 -38 9 -69 26 -55 30 -67 34 -67 25z"/>
<path d="M8963 2893 c-9 -3 -12 -28 -11 -81 l2 -77 6 75 c4 41 7 68 8 60 1 -8
13 -28 26 -45 21 -26 22 -31 8 -41 -13 -10 -14 -16 -5 -37 13 -29 51 -43 49
-18 -2 24 39 16 71 -13 41 -38 71 -52 85 -38 9 9 7 17 -10 32 -12 12 -22 25
-22 30 0 6 -3 10 -7 9 -18 -3 -53 14 -53 25 0 6 -12 22 -26 36 -14 13 -30 34
-35 47 -5 13 -17 23 -28 23 -11 0 -23 5 -26 10 -7 11 -13 11 -32 3z"/>
<path d="M9219 2873 c-1 -10 0 -22 1 -28 2 -5 2 -20 2 -32 -1 -13 2 -23 6 -23
5 0 15 -11 22 -25 7 -13 23 -28 34 -31 12 -4 28 -16 36 -28 62 -88 125 -123
137 -76 3 11 9 20 14 20 5 0 9 9 9 20 0 13 -13 26 -37 39 -21 10 -57 29 -80
41 -47 24 -123 101 -123 125 0 21 -20 19 -21 -2z"/>
<path d="M6690 2821 c-124 -81 -213 -177 -298 -326 -78 -134 -148 -319 -171
-455 -5 -30 -14 -73 -20 -95 -6 -22 -11 -57 -11 -79 0 -21 -7 -65 -15 -97 -11
-42 -13 -65 -6 -77 6 -9 11 -15 11 -12 1 3 10 66 20 140 19 140 38 232 72 335
10 33 23 76 27 95 4 19 24 70 44 112 20 43 37 79 37 82 0 3 19 32 43 66 23 35
49 73 57 85 22 33 109 125 118 125 4 0 16 14 25 30 10 17 23 30 28 30 6 0 25
11 43 25 18 14 37 25 43 25 5 0 18 9 28 20 30 33 5 23 -75 -29z"/>
<path d="M3250 2818 c-19 -13 -38 -36 -43 -52 -20 -61 45 -128 109 -112 15 4
40 21 57 37 25 26 29 35 24 67 -8 44 -47 82 -86 82 -15 0 -43 -10 -61 -22z"/>
<path d="M4080 2738 c0 -3 7 -22 15 -41 78 -186 -131 -353 -365 -293 -156 41
-209 39 -283 -10 -45 -30 -109 -124 -127 -188 -14 -51 -18 -53 -63 -29 -18 9
-54 22 -82 29 -149 40 -252 -9 -328 -154 -49 -94 -107 -155 -175 -189 -124
-61 -248 -25 -304 87 l-28 55 0 -60 c-1 -284 255 -508 530 -466 221 35 400
213 474 474 9 31 21 57 26 57 5 0 24 -9 43 -20 60 -36 191 -78 276 -90 284
-39 528 130 572 396 23 140 -29 299 -131 399 -27 27 -50 47 -50 43z"/>
<path d="M9517 2734 c-4 -4 -7 -30 -7 -58 0 -29 -7 -59 -15 -70 -8 -11 -15
-32 -15 -46 0 -14 -16 -57 -35 -94 -19 -38 -35 -76 -36 -85 0 -9 -16 -36 -35
-61 -19 -25 -43 -64 -54 -87 -12 -23 -35 -62 -53 -85 -18 -24 -43 -63 -56 -88
-13 -25 -39 -64 -58 -87 -18 -23 -33 -44 -33 -48 0 -13 -48 -71 -105 -127 -44
-42 -54 -58 -41 -58 25 0 106 48 106 62 0 6 23 33 50 60 28 27 50 53 50 58 0
13 92 140 101 140 4 0 10 15 13 34 4 19 13 39 21 46 8 7 15 19 15 27 0 7 7 16
15 19 8 4 15 12 15 19 0 7 7 18 15 25 8 7 15 22 15 34 0 12 7 31 15 42 8 10
15 27 15 37 0 9 5 17 10 17 6 0 10 6 10 14 0 7 7 19 15 26 8 7 15 28 15 46 0
19 5 34 11 34 6 0 9 9 6 20 -3 13 0 20 8 20 8 0 17 16 20 38 3 20 10 57 16 82
9 45 0 108 -14 94z"/>
<path d="M6784 2677 c-17 -18 -53 -53 -80 -79 -27 -25 -73 -75 -102 -110 -56
-67 -162 -239 -162 -263 0 -8 -16 -47 -35 -88 -19 -41 -35 -82 -35 -93 0 -11
-9 -45 -20 -77 -11 -31 -20 -67 -20 -80 0 -14 -7 -44 -15 -67 -19 -53 -19 -50
6 -50 13 0 20 6 18 18 -1 9 -1 19 0 22 1 3 3 28 4 57 2 33 9 58 20 71 11 12
23 49 29 91 8 52 16 74 29 81 11 7 20 27 25 58 7 51 39 122 54 122 6 0 10 6
10 14 0 7 6 19 14 25 8 7 17 24 21 39 9 35 52 92 71 92 7 0 14 6 15 13 0 6 22
39 48 72 40 49 53 59 75 57 14 -1 26 2 26 8 0 5 -5 10 -11 10 -5 0 -7 5 -4 10
4 6 14 9 22 8 9 -2 17 5 19 17 2 11 8 21 13 23 12 4 15 32 4 31 -5 0 -22 -14
-39 -32z"/>
<path d="M2770 2593 c-8 -3 -27 -17 -42 -31 -22 -20 -28 -35 -28 -67 0 -75 57
-118 130 -96 110 33 107 185 -5 196 -22 3 -47 2 -55 -2z"/>
<path d="M7105 2489 c-62 -42 -89 -76 -102 -127 -6 -26 -18 -67 -26 -92 -21
-65 -37 -130 -41 -170 -2 -19 -11 -84 -19 -145 -17 -123 -41 -527 -36 -593 5
-52 24 -56 25 -4 3 87 16 275 24 371 6 58 8 106 6 108 -2 2 3 25 10 50 8 26
12 54 9 64 -3 9 2 37 10 63 9 26 14 50 11 55 -3 5 3 35 13 67 11 32 17 62 15
66 -3 5 4 33 15 64 12 30 21 64 21 75 0 10 11 37 25 59 14 22 25 44 25 49 0 5
8 12 18 15 16 5 48 45 40 50 -2 2 -21 -10 -43 -25z"/>
<path d="M9730 2502 c0 -14 65 -82 79 -82 6 0 11 -3 11 -7 0 -5 18 -28 40 -52
22 -25 40 -49 40 -54 0 -6 7 -18 15 -27 24 -26 21 -187 -5 -265 -6 -19 -9 -39
-5 -45 3 -6 0 -34 -8 -63 -13 -46 -25 -123 -32 -212 -1 -16 -7 -48 -14 -71 -6
-23 -13 -67 -16 -99 -3 -32 -9 -63 -14 -69 -4 -6 -8 -31 -8 -56 0 -52 -19 -98
-35 -82 -8 8 -7 24 1 54 7 24 13 66 15 93 2 28 10 64 19 81 9 18 12 35 7 40
-10 10 6 93 20 108 5 5 5 17 -1 28 -8 14 -7 33 4 66 8 26 15 67 15 92 0 25 7
61 15 80 9 21 12 41 7 50 -9 17 6 108 21 126 6 7 4 16 -6 24 -8 7 -15 20 -15
30 0 23 -29 80 -41 80 -5 0 -9 7 -9 15 0 18 -43 37 -65 29 -19 -8 -19 -18 0
-34 8 -7 15 -18 15 -25 0 -8 10 -22 23 -32 28 -22 35 -88 12 -113 -12 -14 -12
-20 0 -42 21 -43 -5 -117 -42 -118 -18 0 -16 40 3 96 11 33 13 49 5 57 -6 6
-11 20 -11 30 0 11 -14 37 -31 58 -28 35 -33 38 -43 23 -10 -13 -8 -28 7 -73
17 -49 18 -62 7 -106 -16 -63 -26 -132 -45 -310 -29 -261 -33 -291 -70 -465
-9 -41 -20 -95 -24 -120 -15 -81 -42 -184 -56 -217 -19 -40 -19 -63 0 -63 22
0 65 45 65 68 0 21 18 42 37 42 9 0 11 -8 7 -26 -6 -21 -4 -25 7 -19 30 17 59
49 59 65 0 9 10 25 21 36 22 19 22 19 15 -8 -13 -56 31 -20 60 47 9 22 21 58
25 80 14 65 55 312 69 410 7 50 26 169 42 265 39 235 49 314 48 384 -1 61 -20
110 -53 134 -29 22 -127 125 -127 134 0 4 -5 8 -12 8 -6 0 -20 7 -30 17 -10 9
-18 11 -18 5z"/>
<path d="M9686 2405 c-4 -33 -16 -84 -27 -113 -12 -29 -22 -64 -23 -77 0 -14
-7 -27 -13 -30 -7 -2 -13 -10 -13 -17 0 -7 -15 -29 -33 -48 -17 -20 -31 -43
-29 -51 3 -17 -94 -149 -110 -149 -5 0 -7 -3 -4 -8 8 -13 -22 -66 -61 -107
-21 -22 -43 -53 -50 -67 -7 -15 -26 -34 -43 -43 -31 -16 -41 -45 -16 -45 26 0
105 51 112 73 4 11 29 43 55 69 27 27 49 55 49 63 0 18 47 95 58 95 9 0 34 50
57 115 10 28 29 66 42 85 12 19 23 43 23 53 0 10 9 37 21 60 23 47 35 158 20
184 -7 13 -11 2 -15 -42z"/>
<path d="M7168 2409 c-39 -20 -48 -44 -25 -68 10 -11 8 -12 -9 -7 -18 6 -25 0
-43 -37 -12 -24 -21 -53 -21 -65 0 -26 -31 -102 -42 -102 -4 0 -3 -12 2 -26 8
-19 5 -35 -10 -70 -12 -26 -18 -53 -14 -68 3 -13 0 -35 -7 -47 -6 -13 -14 -53
-16 -89 -2 -36 -5 -90 -7 -120 -3 -30 -7 -102 -10 -160 -3 -58 -8 -145 -10
-194 -6 -91 3 -126 30 -126 10 0 14 10 13 32 -2 50 10 242 22 343 5 50 11 115
14 146 2 31 8 65 13 76 6 11 7 25 2 33 -4 7 -4 20 0 29 16 30 30 83 24 92 -3
5 1 31 9 57 9 26 18 67 21 91 4 24 13 56 21 72 8 15 15 39 15 52 0 34 26 82
65 119 26 24 32 35 23 45 -13 16 -15 16 -60 -8z"/>
<path d="M7258 2318 c-21 -11 -38 -25 -38 -32 0 -6 -13 -38 -29 -71 -16 -33
-27 -63 -25 -67 3 -4 -4 -34 -14 -65 -34 -100 -80 -340 -88 -458 -1 -22 -5
-80 -8 -130 -16 -238 -16 -308 -1 -332 9 -13 19 -23 24 -23 8 0 15 141 12 265
0 33 2 66 4 74 3 8 8 57 10 109 3 52 10 112 15 134 6 21 8 47 5 57 -3 10 2 35
11 56 9 21 14 52 11 69 -3 21 2 40 16 60 13 18 20 42 19 63 -2 19 6 54 18 80
11 25 20 54 20 64 0 25 47 109 76 136 42 39 23 45 -38 11z"/>
<path d="M9443 2195 c-19 -21 -30 -41 -27 -50 5 -13 -19 -51 -61 -96 -8 -9
-15 -20 -15 -26 0 -6 -6 -13 -14 -16 -7 -3 -16 -18 -19 -34 -3 -15 -22 -45
-41 -67 -20 -21 -36 -41 -36 -45 0 -3 -9 -12 -20 -19 -12 -7 -18 -17 -15 -22
3 -5 -6 -20 -21 -32 -15 -13 -43 -38 -63 -57 l-34 -34 58 5 c38 3 61 10 64 19
6 18 89 99 101 99 6 0 10 10 10 23 0 24 40 86 65 100 8 4 15 15 15 22 0 8 9
15 20 15 17 0 19 3 11 17 -6 12 -2 30 16 65 14 26 29 48 34 48 5 0 14 11 19
25 5 14 14 25 19 25 5 0 7 9 4 20 -3 11 -11 20 -19 20 -8 0 -11 6 -8 15 10 25
-9 16 -43 -20z"/>
<path d="M9360 767 c-23 -12 -25 -17 -22 -67 2 -30 8 -75 14 -100 5 -25 11
-56 12 -70 3 -44 24 -70 56 -70 36 0 40 21 8 43 -20 14 -21 16 -5 16 16 1 17
6 11 34 -4 17 -12 74 -18 126 -6 52 -16 96 -21 98 -6 1 -21 -3 -35 -10z"/>
</g>
</svg>
