<?xml version="1.0" standalone="no"?>
<!DOCTYPE svg PUBLIC "-//W3C//DTD SVG 20010904//EN"
 "http://www.w3.org/TR/2001/REC-SVG-20010904/DTD/svg10.dtd">
<svg version="1.0" xmlns="http://www.w3.org/2000/svg"
 width="359.000000pt" height="158.000000pt" viewBox="0 0 359.000000 158.000000"
 preserveAspectRatio="xMidYMid meet">
<metadata>
Created by potrace 1.15, written by Peter Selinger 2001-2017
</metadata>
<g transform="translate(0.000000,158.000000) scale(0.100000,-0.100000)"
fill="#000000" stroke="none">
<path d="M2358 1037 c-13 -4 -39 -6 -58 -3 l-35 5 41 -19 c37 -18 47 -18 109
-7 59 11 73 11 101 -3 43 -20 43 -28 -1 -28 -23 0 -51 -10 -77 -28 -22 -16
-55 -38 -72 -48 -17 -11 -48 -31 -69 -44 -22 -13 -37 -26 -34 -28 5 -5 27 7
102 53 55 33 137 74 142 70 3 -3 -6 -11 -19 -18 -12 -6 -25 -15 -28 -18 -7 -9
-42 -30 -67 -41 -13 -5 -23 -14 -23 -20 0 -15 16 -12 34 5 8 8 21 15 30 15 8
0 17 4 20 9 10 15 107 62 119 57 7 -2 2 -8 -10 -11 -13 -4 -23 -11 -23 -15 0
-4 -12 -12 -26 -19 -15 -6 -24 -14 -21 -17 3 -3 16 1 29 10 12 8 38 18 56 21
19 3 37 6 40 7 4 1 18 -4 30 -11 23 -12 23 -11 17 11 -4 12 -14 30 -21 39 -8
8 -14 18 -14 21 0 10 84 -26 117 -49 34 -25 43 -28 43 -13 0 6 -15 19 -32 30
l-33 20 34 -6 c31 -6 33 -5 26 15 -4 14 -2 21 6 21 7 0 9 3 5 7 -4 4 -46 8
-94 10 -48 2 -93 5 -99 8 -7 2 -13 -1 -13 -8 0 -7 -6 -3 -12 8 -16 29 -18 31
-26 18 -5 -8 -32 -9 -89 -4 -45 4 -93 3 -105 -2z"/>
<path d="M1230 791 c0 -11 -10 -31 -21 -42 -19 -19 -29 -21 -94 -15 -72 7 -73
6 -99 -24 -14 -18 -26 -35 -26 -40 0 -5 -24 -6 -54 -3 -50 5 -54 4 -72 -22
-43 -62 -71 -85 -108 -85 -19 0 -38 5 -41 10 -13 22 -23 8 -14 -19 29 -83 134
-117 208 -68 26 17 48 45 66 81 l27 54 33 -14 c41 -17 128 -18 158 -3 56 29
86 95 72 158 -8 39 -35 63 -35 32z"/>
<path d="M2105 716 c-17 -40 -36 -187 -33 -261 1 -55 4 -40 13 78 4 42 11 77
17 77 6 0 8 -6 5 -14 -10 -27 -19 -216 -10 -216 4 0 10 28 11 62 5 90 12 85
12 -7 0 -43 2 -76 4 -74 3 3 8 43 11 89 6 85 30 210 47 243 5 9 6 17 3 17 -11
0 -43 -87 -50 -138 -4 -29 -11 -50 -15 -47 -8 5 13 111 35 177 16 47 -2 38
-22 -11 -19 -43 -28 -27 -14 23 12 46 4 46 -14 2z"/>
<path d="M2950 690 c5 -10 10 -26 10 -35 0 -14 -4 -13 -21 6 -15 18 -19 19
-15 6 7 -24 -20 -229 -43 -319 -11 -40 -17 -75 -16 -76 2 -2 24 10 48 27 43
29 46 34 56 98 45 287 47 313 20 313 -8 0 -8 -4 1 -15 9 -11 10 -19 3 -26 -8
-8 -13 -5 -17 9 -4 11 -13 23 -22 26 -11 4 -12 2 -4 -14z"/>
</g>
</svg>
