<?xml version="1.0" standalone="no"?>
<!DOCTYPE svg PUBLIC "-//W3C//DTD SVG 20010904//EN"
 "http://www.w3.org/TR/2001/REC-SVG-20010904/DTD/svg10.dtd">
<svg version="1.0" xmlns="http://www.w3.org/2000/svg"
 width="1191.000000pt" height="526.000000pt" viewBox="0 0 1191.000000 526.000000"
 preserveAspectRatio="xMidYMid meet">

<g transform="translate(0.000000,526.000000) scale(0.100000,-0.100000)"
fill="#000000" stroke="none">
<path d="M5173 5182 c-40 -15 -73 -31 -73 -35 0 -5 8 -6 18 -3 15 5 25 -14 66
-128 49 -135 51 -161 19 -187 -24 -21 -44 12 -99 165 -27 75 -53 136 -57 136
-5 0 -42 -12 -83 -26 -74 -27 -104 -46 -64 -41 19 2 27 -14 70 -128 53 -142
78 -175 133 -175 53 1 116 35 132 72 8 18 14 29 15 23 2 -35 17 -37 94 -9 42
15 79 31 83 36 3 6 -3 8 -15 4 -13 -5 -22 -1 -27 11 -4 10 -29 77 -55 148 -64
173 -61 165 -74 164 -6 0 -44 -13 -83 -27z"/>
<path d="M4677 5001 c-65 -21 -104 -44 -129 -75 -30 -37 -19 -94 22 -116 29
-15 87 11 95 43 8 29 -9 67 -29 67 -21 0 -27 28 -10 45 9 8 18 15 22 15 22 -1
50 -45 77 -121 l14 -40 -54 -24 c-74 -32 -105 -65 -105 -110 0 -52 36 -85 92
-85 52 0 105 30 114 64 6 24 7 24 30 10 40 -27 137 6 154 51 9 25 2 95 -10 95
-3 0 -5 -13 -2 -30 2 -16 1 -37 -2 -47 -11 -29 -33 4 -76 117 -58 152 -93 176
-203 141z m89 -255 c18 -57 14 -86 -10 -86 -9 0 -22 21 -32 54 -14 45 -15 58
-4 70 20 25 28 19 46 -38z"/>
<path d="M3878 4937 c-49 -18 -88 -35 -88 -39 0 -5 11 -6 23 -3 24 7 29 -2 94
-181 3 -7 -10 -11 -34 -11 -53 0 -115 -34 -138 -76 -38 -71 11 -235 84 -284
64 -43 168 -19 192 43 9 26 10 26 23 8 14 -18 16 -18 82 5 90 31 107 40 74 41
-24 0 -31 16 -120 261 -52 143 -97 262 -100 264 -3 1 -44 -11 -92 -28z m40
-272 c11 -14 37 -72 57 -130 32 -89 36 -110 27 -130 -8 -17 -20 -25 -37 -25
-22 0 -30 9 -55 63 -47 104 -73 202 -60 226 15 28 44 26 68 -4z"/>
<path d="M4325 4881 c-114 -28 -183 -109 -172 -202 9 -77 52 -145 109 -175 62
-32 182 -7 238 51 25 26 33 43 36 82 l4 48 -14 -48 c-18 -61 -39 -85 -83 -93
-50 -9 -79 8 -108 65 -31 62 -31 78 -2 87 12 4 57 20 99 36 76 29 77 30 67 56
-15 41 -59 81 -98 92 -20 5 -38 9 -41 9 -3 -1 -18 -4 -35 -8z m21 -86 c14 -30
23 -59 20 -64 -3 -5 -20 -14 -36 -20 -28 -9 -32 -8 -41 17 -15 39 -22 89 -16
107 4 8 16 15 27 15 16 0 27 -14 46 -55z"/>
<path d="M3467 4561 c-65 -21 -104 -44 -129 -75 -30 -37 -19 -94 22 -116 29
-15 87 11 95 43 8 29 -9 67 -29 67 -21 0 -27 28 -10 45 9 8 18 15 22 15 22 -1
50 -45 77 -121 l14 -40 -54 -24 c-74 -32 -105 -65 -105 -110 0 -52 36 -85 92
-85 52 0 105 30 114 64 6 24 7 24 30 10 40 -27 137 6 154 51 9 25 2 95 -10 95
-3 0 -5 -13 -2 -30 2 -16 1 -37 -2 -47 -11 -29 -33 4 -76 117 -58 152 -93 176
-203 141z m89 -255 c18 -57 14 -86 -10 -86 -9 0 -22 21 -32 54 -14 45 -15 58
-4 70 20 25 28 19 46 -38z"/>
<path d="M3130 4441 c-157 -48 -208 -165 -133 -303 15 -27 42 -58 60 -69 67
-42 185 -19 243 47 25 29 30 43 29 82 -1 51 -4 48 -14 -12 -14 -85 -101 -117
-148 -53 -27 35 -61 122 -77 194 -9 37 -8 50 5 69 19 30 51 31 66 3 9 -18 8
-24 -4 -31 -27 -15 9 -78 44 -78 32 0 69 23 75 47 19 76 -58 131 -146 104z"/>
<path d="M6660 4390 c0 -6 15 -10 33 -9 17 0 55 -4 82 -11 28 -6 68 -14 89
-17 21 -3 65 -21 97 -39 31 -19 61 -34 66 -34 4 0 37 -27 71 -60 35 -33 67
-60 70 -60 4 0 34 -36 65 -79 32 -44 61 -81 65 -83 4 -2 21 -23 37 -47 17 -24
37 -53 45 -65 26 -38 161 -156 178 -156 9 0 -12 27 -54 68 -75 73 -126 134
-186 221 -20 31 -60 80 -87 110 -28 30 -52 57 -53 60 -2 3 -23 22 -48 41 -25
19 -55 44 -67 54 -71 61 -403 148 -403 106z"/>
<path d="M7400 4386 c0 -8 12 -19 28 -24 15 -6 50 -31 77 -56 28 -25 53 -46
57 -46 4 0 35 -26 69 -57 33 -32 68 -62 77 -67 10 -5 22 -15 27 -21 6 -6 48
-45 95 -86 46 -41 95 -84 108 -96 12 -13 28 -23 35 -23 21 1 -301 304 -398
376 -22 16 -49 38 -60 50 -18 19 -95 64 -110 64 -3 0 -5 -6 -5 -14z"/>
<path d="M6572 4342 c-20 -13 10 -23 46 -16 16 3 52 -3 84 -14 31 -11 67 -18
81 -15 13 3 28 0 31 -6 8 -13 26 -15 26 -3 0 16 -47 35 -109 43 -36 4 -84 11
-106 14 -22 3 -46 2 -53 -3z"/>
<path d="M7305 4334 c-20 -15 -20 -15 -1 -30 11 -8 28 -14 38 -14 10 0 21 -6
24 -14 7 -17 34 -10 34 9 0 8 -8 11 -20 8 -16 -4 -19 -2 -14 11 4 11 -1 22
-12 31 -24 18 -25 18 -49 -1z"/>
<path d="M2173 4302 c-80 -30 -102 -45 -60 -40 l29 3 94 -254 c51 -139 91
-257 88 -262 -3 -5 -12 -9 -20 -9 -8 0 -13 -4 -10 -9 3 -5 51 8 106 28 101 38
135 56 91 49 -22 -3 -28 11 -120 259 -68 187 -100 263 -111 262 -8 0 -47 -12
-87 -27z"/>
<path d="M6095 4290 c-22 -5 -66 -8 -99 -8 -75 0 -171 -46 -227 -110 -44 -50
-92 -145 -110 -215 -17 -71 -6 -180 25 -247 14 -30 26 -49 26 -42 0 7 -7 26
-15 43 -10 19 -14 47 -11 82 2 28 5 52 6 52 1 0 3 26 4 57 3 64 17 88 47 81
18 -5 20 -12 16 -42 -3 -20 -11 -49 -18 -66 -7 -16 -11 -35 -10 -42 1 -6 -3
-14 -9 -18 -6 -4 -5 -16 5 -35 8 -16 15 -42 15 -57 1 -52 36 -112 76 -129 32
-14 39 -14 51 -1 11 11 12 20 4 34 -13 25 -15 73 -5 143 12 91 80 216 178 331
61 72 163 159 186 159 5 0 10 5 10 11 0 6 10 10 23 9 36 -3 47 -1 47 11 0 35
-180 -37 -235 -95 -74 -75 -115 -100 -130 -76 -6 10 7 14 33 11 6 -1 12 2 12
8 0 5 -6 11 -12 14 -20 6 19 45 73 72 25 13 51 31 58 39 8 9 22 16 32 16 11 0
19 5 19 10 0 11 -8 11 -65 0z m-109 -41 c-24 -35 -84 -71 -106 -64 -32 10 -7
41 52 64 67 25 72 26 54 0z m-108 -80 c-2 -6 -7 -10 -11 -10 -4 1 -14 1 -23 1
-8 0 -12 5 -9 10 8 13 48 13 43 -1z m-44 -25 c23 -9 20 -30 -10 -70 -27 -35
-39 -40 -63 -25 -11 7 -9 17 15 55 30 48 33 50 58 40z m126 -66 c0 -15 -51
-78 -64 -78 -6 0 -17 4 -25 9 -12 8 -12 13 3 36 33 50 56 68 72 54 8 -6 14
-16 14 -21z m-180 -69 c0 -5 -11 -9 -25 -9 -24 0 -32 10 -19 22 8 8 44 -3 44
-13z m110 -39 c0 -5 -9 -10 -19 -10 -11 0 -23 5 -26 10 -4 6 5 10 19 10 14 0
26 -4 26 -10z m-26 -45 c7 -20 -32 -105 -49 -105 -19 0 -28 33 -16 61 5 13 12
32 15 42 7 21 42 23 50 2z m-44 -141 c0 -8 -5 -14 -11 -14 -6 0 -7 -5 -2 -12
4 -7 10 -35 14 -63 4 -27 10 -60 14 -72 13 -42 -14 -25 -36 22 -17 36 -20 57
-16 96 3 27 9 54 12 59 8 13 25 3 25 -16z"/>
<path d="M6383 4286 c20 -21 63 -30 72 -16 9 15 7 16 -43 24 -39 6 -42 5 -29
-8z"/>
<path d="M6866 4283 c-12 -12 -6 -21 28 -37 43 -20 66 -20 66 -1 0 8 -6 15
-14 15 -8 0 -16 4 -18 8 -4 12 -53 23 -62 15z"/>
<path d="M6542 4268 c7 -19 55 -28 68 -13 8 9 6 14 -6 19 -27 10 -66 7 -62 -6z"/>
<path d="M7197 4273 c-14 -13 -6 -22 28 -33 20 -7 55 -31 79 -55 23 -24 55
-47 69 -50 15 -4 27 -11 27 -16 0 -5 21 -32 47 -59 34 -37 52 -48 66 -44 14 5
18 1 15 -14 -3 -21 5 -32 99 -125 100 -99 136 -132 187 -172 48 -38 49 -40 25
-45 -23 -6 -85 1 -141 15 -18 5 -28 3 -28 -4 0 -6 10 -13 23 -15 12 -3 36 -8
52 -11 17 -3 50 -10 75 -16 44 -9 117 -16 268 -23 75 -4 151 -19 215 -42 45
-17 57 -17 57 -4 0 6 -4 10 -9 10 -5 0 -25 16 -44 35 -33 33 -77 47 -77 25 0
-20 -136 1 -191 30 -28 15 -112 82 -117 93 -2 4 -18 14 -35 22 -18 7 -50 30
-72 50 -22 20 -56 47 -75 60 -20 12 -52 38 -71 56 -19 19 -46 40 -61 48 -14 7
-45 32 -69 55 -24 22 -56 49 -71 59 -15 9 -50 37 -78 62 -28 25 -57 45 -65 45
-7 0 -15 4 -17 8 -1 4 -19 20 -39 35 -35 27 -59 33 -72 20z m463 -373 c0 -5
-4 -10 -10 -10 -5 0 -10 5 -10 10 0 6 5 10 10 10 6 0 10 -4 10 -10z m135 -100
c3 -5 1 -10 -4 -10 -6 0 -11 5 -11 10 0 6 2 10 4 10 3 0 8 -4 11 -10z m149
-126 c4 -10 1 -14 -6 -12 -15 5 -23 28 -10 28 5 0 13 -7 16 -16z m46 -24 c0
-5 -2 -10 -4 -10 -3 0 -8 5 -11 10 -3 6 -1 10 4 10 6 0 11 -4 11 -10z"/>
<path d="M6630 4260 c0 -5 11 -10 23 -10 13 0 31 -8 40 -18 9 -10 33 -19 54
-20 52 -3 103 -21 103 -35 0 -7 15 -18 33 -26 81 -34 117 -54 117 -64 0 -18
56 -67 77 -67 22 0 63 -42 63 -64 0 -9 -8 -16 -21 -16 -11 0 -18 4 -15 9 4 5
-3 7 -14 4 -16 -4 -69 14 -131 47 -32 17 -319 0 -319 -19 0 -3 35 -4 77 -3 75
4 189 -13 198 -28 3 -5 14 -6 26 -3 23 6 111 -35 106 -51 -2 -5 -16 -13 -32
-18 -21 -5 -31 -3 -40 9 -7 9 -17 13 -24 9 -6 -4 -18 0 -27 8 -8 9 -24 16 -34
16 -10 0 -21 4 -25 9 -3 6 -18 6 -37 0 -17 -5 -36 -5 -42 -1 -12 9 -44 14 -96
14 -40 0 -177 -26 -187 -36 -14 -13 8 -18 34 -7 16 6 64 11 108 10 44 -1 85 0
90 1 6 2 17 1 25 -2 80 -28 132 -40 149 -35 11 3 25 -1 31 -8 6 -8 18 -11 26
-8 8 3 14 1 14 -5 0 -12 79 -52 102 -52 15 0 96 -48 143 -85 10 -8 25 -15 33
-15 20 0 93 -60 86 -71 -3 -5 4 -9 15 -9 12 0 21 -4 21 -9 0 -5 15 -12 33 -15
41 -8 106 -61 92 -75 -7 -7 -18 -6 -35 4 -14 8 -37 19 -52 26 -16 6 -28 15
-28 20 0 5 -7 9 -15 9 -9 0 -18 7 -21 15 -4 8 -13 15 -21 15 -19 0 -113 52
-113 63 0 4 -7 7 -15 7 -9 0 -18 6 -21 14 -3 8 -13 14 -22 14 -20 -1 -148 58
-157 72 -3 6 -18 10 -33 10 -26 0 -86 18 -107 32 -19 12 -200 42 -265 44 -74
2 -118 -7 -186 -38 l-49 -22 65 -12 c168 -30 328 -79 458 -140 40 -19 75 -34
77 -34 5 0 97 -43 280 -130 44 -21 124 -59 179 -85 116 -55 314 -135 334 -135
30 0 3 -26 -39 -36 -24 -7 -64 -19 -89 -29 -50 -18 -202 -67 -300 -95 -35 -10
-85 -27 -110 -38 -25 -11 -63 -25 -85 -31 -52 -16 -187 -73 -295 -125 -123
-59 -253 -150 -313 -220 -29 -34 -57 -67 -64 -74 -15 -16 -115 -179 -130 -212
-69 -156 -104 -272 -133 -444 -11 -67 -25 -143 -31 -171 -17 -79 -24 -527 -10
-615 7 -41 14 -94 16 -117 2 -24 11 -50 19 -59 9 -8 16 -20 16 -25 0 -5 5 -9
10 -9 6 0 10 31 10 72 0 39 3 68 7 64 4 -3 7 -52 7 -109 1 -80 5 -111 21 -144
31 -66 49 -51 22 18 -9 25 -12 98 -10 279 4 359 7 426 23 445 8 9 14 45 15 86
1 39 6 74 12 77 17 12 26 45 29 105 2 40 8 63 19 70 8 7 18 30 21 52 7 56 26
115 35 115 12 0 40 70 37 89 -4 31 12 69 37 85 28 19 59 72 52 90 -6 16 40 76
58 76 17 0 77 69 70 80 -3 5 4 23 16 40 25 33 42 40 32 13 -5 -13 -2 -15 11
-10 14 5 16 3 11 -12 -3 -11 -2 -22 3 -25 5 -3 15 -27 22 -53 7 -27 17 -52 21
-57 5 -6 9 -17 9 -25 0 -9 6 -28 14 -42 7 -14 16 -37 19 -51 4 -15 23 -62 43
-105 31 -66 35 -84 30 -123 -4 -25 -9 -81 -11 -125 -3 -44 -12 -168 -20 -275
-9 -107 -15 -231 -13 -275 3 -76 4 -80 30 -93 16 -7 33 -23 39 -35 19 -36 51
-67 71 -67 10 0 20 -10 24 -24 8 -31 51 -73 63 -60 6 5 13 65 16 134 4 69 9
145 12 170 2 25 5 57 5 72 1 15 4 26 8 23 3 -2 7 35 8 83 1 95 16 239 32 317
6 28 15 75 19 105 5 30 16 72 25 92 9 21 16 48 16 62 0 14 4 27 9 31 5 3 12
19 16 35 4 20 17 36 36 45 16 9 29 22 29 31 0 9 7 14 18 13 32 -4 122 47 138
79 7 14 15 18 24 12 12 -7 37 3 98 41 12 7 23 23 27 36 6 25 25 32 25 8 0 -12
5 -13 28 -3 57 23 91 42 86 50 -8 12 16 49 27 43 5 -4 6 -11 3 -17 -5 -7 2 -9
21 -4 34 9 95 54 95 71 0 20 29 40 41 28 12 -12 49 -6 49 8 0 5 8 9 18 9 11 0
27 9 37 20 10 11 24 20 32 20 7 0 53 25 102 55 49 30 96 55 104 55 9 0 22 6
29 13 7 7 21 16 31 20 10 4 16 11 13 16 -3 5 2 7 13 4 11 -3 21 2 24 11 4 9
15 16 25 16 10 0 22 3 26 7 3 4 14 8 24 9 9 2 50 12 91 24 l74 22 56 -22 c31
-12 62 -22 69 -22 7 -1 23 -15 34 -32 27 -39 54 -66 67 -66 15 0 26 111 12
129 -42 58 -50 111 -18 111 17 0 37 -42 37 -75 0 -15 6 -25 14 -25 11 0 13
-23 12 -112 -2 -62 1 -117 5 -123 4 -5 9 -37 12 -70 8 -94 23 -180 35 -202 7
-12 15 -47 18 -79 4 -33 12 -66 19 -74 13 -15 31 -113 26 -138 -1 -8 4 -19 12
-25 9 -7 21 -46 27 -86 7 -41 19 -81 26 -89 19 -19 18 -22 -17 -76 -31 -47
-32 -47 -47 -25 -9 12 -17 50 -19 86 -2 40 -9 70 -18 79 -8 9 -15 27 -16 42 0
15 -2 44 -4 65 -3 31 -1 37 15 37 11 0 20 4 20 9 0 5 -9 7 -20 4 -11 -3 -26 0
-34 6 -14 12 -32 102 -27 130 2 8 -4 20 -13 26 -11 9 -16 31 -17 78 -1 37 -5
67 -10 67 -5 0 -9 28 -9 63 0 35 -3 67 -7 71 -5 4 -7 35 -5 69 l2 62 -17 -30
c-14 -25 -17 -54 -16 -178 1 -81 6 -153 11 -160 5 -7 10 -39 11 -72 1 -33 7
-64 14 -70 7 -5 14 -30 15 -55 6 -80 8 -88 21 -104 7 -9 16 -45 19 -82 2 -36
10 -68 16 -70 7 -3 13 -30 14 -61 1 -31 7 -62 13 -69 15 -18 2 -52 -23 -60
-23 -7 -35 6 -43 46 -3 14 -11 39 -17 55 -6 17 -13 53 -15 82 -3 29 -11 57
-19 64 -8 6 -14 26 -14 43 0 17 -5 49 -11 71 -26 95 -50 314 -42 375 6 44 -12
57 -22 17 -16 -62 13 -424 37 -462 3 -6 7 -33 9 -60 1 -28 7 -56 12 -63 6 -7
12 -30 14 -50 5 -53 41 -122 63 -122 10 0 20 -7 24 -15 6 -17 57 -20 72 -5 6
6 24 14 41 19 26 8 32 6 36 -9 3 -12 -3 -24 -16 -33 -24 -16 -15 -37 16 -37
17 0 19 -2 7 -10 -8 -5 -11 -12 -7 -16 3 -4 22 5 42 20 40 31 88 32 93 4 3
-16 -2 -17 -41 -12 -40 6 -46 4 -52 -15 -5 -17 -11 -20 -33 -14 -15 3 -28 10
-30 15 -5 11 -49 10 -73 -2 -20 -11 -27 -40 -9 -40 6 0 10 7 10 15 0 9 10 15
26 15 14 0 23 -4 19 -10 -3 -5 -12 -10 -20 -10 -8 0 -22 -13 -32 -30 -20 -34
-29 -36 -61 -14 -13 9 -26 13 -29 10 -4 -3 -1 -6 5 -6 7 0 12 -5 12 -11 0 -7
-13 -9 -38 -4 -31 5 -49 0 -102 -28 -88 -46 -164 -89 -170 -97 -3 -4 -29 -19
-58 -35 -72 -39 -169 -137 -181 -183 -6 -20 -15 -73 -21 -117 -5 -44 -15 -107
-20 -140 -6 -33 -17 -103 -25 -155 -13 -89 -25 -161 -75 -440 -12 -63 -25
-137 -29 -164 -5 -27 -15 -52 -22 -56 -9 -6 -14 -27 -14 -61 l0 -53 52 -11
c28 -5 55 -13 59 -17 10 -11 2220 -10 2265 1 60 14 79 38 79 98 0 47 -4 55
-44 97 -28 30 -52 46 -68 46 -13 0 -31 9 -41 20 -9 11 -26 20 -37 20 -11 0
-20 7 -20 15 0 8 -9 15 -19 15 -33 0 -186 52 -194 67 -4 7 -13 13 -18 13 -6 0
-17 7 -25 15 -8 8 -40 22 -70 32 -37 11 -66 29 -86 52 -21 23 -32 30 -37 22
-6 -9 -22 -3 -57 20 -58 39 -204 184 -204 203 0 7 -18 27 -40 45 -22 17 -40
35 -40 39 0 4 15 13 33 21 20 8 27 15 18 18 -7 3 -17 0 -20 -6 -8 -13 -41 -4
-41 11 0 5 5 6 11 2 8 -4 9 0 4 15 -4 13 -2 21 5 21 6 0 21 9 33 21 12 11 39
29 60 40 20 11 37 24 37 29 0 15 100 85 276 195 87 54 257 162 377 239 278
179 288 186 310 193 9 3 17 8 17 12 0 4 27 27 61 51 105 78 130 106 123 138
-5 24 0 21 45 -28 28 -30 65 -76 83 -102 17 -27 35 -48 40 -48 4 0 8 -7 8 -15
0 -9 7 -18 15 -22 9 -3 36 -36 60 -73 25 -38 50 -70 56 -72 11 -4 36 -42 79
-121 11 -20 24 -37 30 -37 5 0 27 -34 50 -75 23 -41 45 -75 50 -75 5 0 16 -21
26 -47 10 -25 27 -58 39 -72 12 -14 29 -46 39 -71 10 -25 24 -52 31 -60 7 -8
17 -32 20 -54 4 -21 18 -57 30 -80 13 -22 26 -56 30 -74 8 -37 32 -53 46 -31
11 18 1 89 -16 109 -7 8 -15 29 -19 45 -10 46 -11 48 -28 75 -9 14 -23 44 -30
68 -7 23 -18 42 -23 42 -6 0 -19 24 -29 53 -10 28 -25 57 -33 64 -16 12 -63
100 -63 115 0 13 26 38 39 38 6 0 11 -7 11 -15 0 -8 -4 -15 -10 -15 -5 0 -10
-5 -10 -11 0 -8 4 -8 13 -1 18 15 30 4 56 -50 14 -30 20 -56 16 -70 -4 -14 -3
-18 2 -11 13 19 30 2 53 -52 12 -28 27 -57 35 -65 12 -15 31 -77 27 -93 -1 -4
5 -10 13 -13 8 -4 15 -14 15 -23 0 -10 6 -25 13 -35 12 -17 15 -15 26 27 8 28
10 58 5 78 -4 19 -8 37 -8 41 -1 4 -8 13 -17 20 -9 7 -22 34 -29 61 -7 26 -18
51 -24 55 -7 4 -20 30 -31 57 -10 28 -29 60 -42 72 -13 12 -26 36 -29 53 -4
16 -10 30 -15 30 -16 0 -9 29 8 39 14 7 11 9 -16 8 -28 -2 -37 3 -52 28 -10
17 -18 36 -18 44 -1 15 27 40 46 41 19 0 74 -102 68 -127 -4 -17 -1 -20 15
-16 15 4 24 -6 47 -53 15 -33 33 -62 40 -67 7 -4 20 -32 29 -62 10 -30 21 -55
25 -55 4 0 15 -20 25 -45 20 -54 39 -58 48 -11 6 29 -2 51 -44 133 -28 54 -56
102 -61 107 -5 6 -9 17 -9 25 0 9 -18 39 -40 66 -22 28 -40 56 -40 63 0 8 -20
40 -45 72 -25 32 -45 63 -45 68 0 5 -21 36 -46 68 -25 33 -54 75 -64 94 -10
19 -31 49 -46 65 -15 17 -41 53 -59 80 -18 28 -41 57 -50 65 -9 8 -38 41 -63
75 -26 33 -56 71 -69 85 -35 39 -128 153 -138 169 -6 10 -4 12 5 6 10 -6 12 0
7 28 -3 21 -2 37 4 37 5 0 9 8 9 18 0 11 11 70 25 133 33 145 77 428 69 438
-1 1 -8 0 -14 -4 -7 -5 -9 -20 -5 -41 5 -27 3 -34 -10 -34 -8 0 -15 7 -15 15
0 9 -6 12 -15 9 -8 -4 -15 -2 -15 4 0 6 -9 8 -20 5 -22 -6 -27 -23 -7 -23 6
-1 -4 -8 -23 -16 -19 -8 -37 -18 -40 -23 -3 -4 -18 -7 -35 -7 -21 1 -30 -4
-29 -14 1 -9 -6 -17 -16 -17 -30 -2 -100 -37 -100 -50 0 -7 -12 -15 -27 -19
-36 -7 -42 -10 -78 -34 -16 -11 -36 -23 -44 -26 -14 -7 -94 32 -186 91 -107
69 -510 263 -675 325 -19 7 -39 17 -45 21 -5 4 -73 30 -149 59 -77 29 -163 63
-190 76 l-50 23 -23 -21 c-26 -24 -31 -53 -8 -44 8 3 27 1 41 -4 20 -8 24 -14
19 -33 -11 -36 -22 -41 -49 -24 -16 11 -27 13 -31 7 -12 -19 -24 1 -19 29 4
21 0 34 -15 48 -13 12 -18 26 -14 41 6 25 15 27 44 10 17 -11 22 -10 35 6 18
25 15 27 -69 55 -48 17 -77 21 -103 16 -36 -6 -36 -6 -29 22 9 37 12 39 35 25
27 -17 106 32 114 71 5 27 29 37 41 17 9 -14 25 -12 25 3 0 6 12 18 28 24 15
7 35 27 45 44 14 26 22 30 42 25 19 -5 25 -2 25 10 0 11 6 15 20 11 11 -3 20
-1 20 3 0 5 9 12 20 15 11 3 20 15 20 25 0 10 6 22 13 27 28 18 83 32 106 26
15 -4 22 -2 18 4 -4 6 0 16 8 23 8 7 15 18 15 26 0 18 20 28 32 16 13 -13 40
-4 31 11 -4 6 -1 7 6 2 21 -12 60 15 66 47 5 22 12 29 28 27 41 -3 50 1 91 44
22 24 50 46 60 50 18 7 18 9 3 24 -15 16 -20 15 -69 -7 -29 -14 -62 -34 -73
-46 -12 -11 -46 -33 -77 -48 -31 -15 -59 -34 -62 -42 -3 -8 -10 -14 -16 -14
-12 0 -111 -60 -125 -76 -5 -6 -41 -28 -80 -49 -38 -21 -73 -42 -76 -48 -7
-10 -38 -29 -96 -57 -23 -11 -46 -26 -50 -33 -4 -7 -38 -28 -75 -46 -38 -18
-68 -37 -68 -42 0 -4 -32 -23 -70 -41 -55 -26 -69 -37 -66 -51 4 -16 -1 -17
-40 -11 -30 4 -44 3 -44 -5 0 -6 -7 -11 -17 -11 -9 0 -14 3 -10 6 3 3 -4 22
-15 42 -11 21 -14 31 -7 25 14 -14 49 -18 49 -5 0 4 20 14 45 21 44 13 72 41
60 60 -3 5 3 7 13 5 9 -3 43 7 76 22 50 23 57 30 53 49 -3 21 -2 22 15 12 13
-8 21 -9 26 -2 4 6 26 19 50 29 56 25 69 41 51 64 -13 15 -12 16 3 4 15 -12
26 -9 82 18 62 31 83 51 71 71 -4 5 1 6 9 3 19 -7 133 46 140 66 3 8 20 21 38
29 65 28 110 62 104 77 -3 9 -2 12 5 9 15 -10 127 47 134 68 4 9 11 17 16 17
6 0 7 4 4 10 -16 26 -128 -4 -137 -37 -3 -11 -30 -28 -68 -43 -36 -14 -65 -31
-67 -41 -3 -10 -14 -20 -25 -22 -13 -4 -18 -11 -15 -20 4 -10 -1 -13 -17 -10
-35 7 -92 -30 -88 -57 2 -18 0 -20 -12 -11 -11 9 -17 8 -29 -4 -9 -8 -21 -15
-27 -15 -23 0 -90 -41 -90 -55 0 -8 -9 -15 -20 -15 -11 0 -20 -4 -20 -10 0 -5
-4 -10 -10 -10 -22 0 -91 -36 -95 -50 -3 -8 -19 -21 -37 -28 -78 -32 -99 -43
-104 -57 -6 -15 -41 -34 -106 -56 -21 -7 -40 -20 -43 -28 -4 -15 -90 -61 -112
-61 -6 0 -18 -9 -28 -20 -22 -24 -61 -26 -73 -4 -8 15 -13 14 -44 -10 -41 -31
-51 -33 -43 -7 7 25 -12 74 -28 68 -6 -2 -14 -17 -17 -33 -6 -36 -35 -40 -36
-4 -1 37 -21 80 -39 80 -8 0 -15 -4 -15 -10 0 -15 -36 -12 -49 4 -7 8 -30 17
-52 21 -21 4 -39 11 -39 16 0 5 -17 9 -39 9 -21 0 -67 9 -101 20 -47 15 -71
18 -96 11 -21 -6 -36 -5 -43 2 -6 6 -50 12 -99 13 -49 1 -109 9 -135 18 -26 9
-63 16 -82 16 -19 0 -58 13 -88 30 -30 17 -61 30 -69 30 -12 0 -73 41 -132 90
-81 66 -262 280 -249 294 4 3 0 6 -7 6 -7 0 -44 32 -82 70 -44 45 -79 73 -98
77 -17 3 -30 1 -30 -4 0 -14 64 -73 80 -73 15 -1 89 -89 102 -122 4 -10 14
-18 22 -18 8 0 28 -19 45 -42 78 -112 279 -278 383 -318 50 -18 69 -26 122
-50 30 -13 58 -19 73 -15 14 3 31 1 39 -5 7 -7 18 -9 24 -5 6 4 16 2 23 -3 20
-16 61 -22 92 -13 28 7 89 -1 125 -16 8 -3 38 -7 65 -8 39 -1 103 -21 133 -40
1 -1 -2 -14 -7 -29 -13 -33 -31 -34 -31 -1 0 25 0 25 -19 6 -19 -19 -20 -19
-93 1 -40 11 -99 21 -130 22 -32 2 -63 8 -70 13 -17 13 -91 16 -83 3 10 -17
-14 -11 -43 9 -15 11 -54 25 -86 30 -33 6 -71 19 -85 28 -39 27 -62 40 -108
61 -22 11 -64 38 -93 61 -28 23 -56 41 -61 41 -5 0 -35 26 -67 58 -31 32 -74
69 -94 81 -21 12 -38 30 -38 39 0 9 -20 39 -45 67 -25 27 -45 53 -45 57 0 5
-6 8 -12 8 -7 0 -27 14 -45 30 -18 17 -34 30 -37 30 -3 0 -20 14 -38 30 -18
17 -36 30 -41 30 -5 0 -39 18 -76 40 -37 22 -74 40 -82 40 -9 0 -43 11 -77 25
-65 26 -102 32 -102 15z m460 -391 c0 -5 -7 -9 -15 -9 -15 0 -20 12 -9 23 8 8
24 -1 24 -14z m112 -54 c-1 -16 -19 -17 -34 -2 -8 8 -24 18 -36 21 -26 9 -29
23 -4 29 18 4 74 -32 74 -48z m-552 5 c0 -5 -16 -10 -35 -10 -19 0 -35 5 -35
10 0 6 16 10 35 10 19 0 35 -4 35 -10z m905 -320 c3 -5 1 -10 -4 -10 -6 0 -11
5 -11 10 0 6 2 10 4 10 3 0 8 -4 11 -10z m92 -16 c24 -9 43 -21 43 -25 0 -12
-57 -11 -65 1 -3 6 -15 10 -26 10 -10 0 -19 7 -19 15 0 19 14 19 67 -1z m293
-14 c0 -5 -4 -10 -10 -10 -5 0 -10 5 -10 10 0 6 5 10 10 10 6 0 10 -4 10 -10z
m-97 -30 c16 0 18 -3 10 -11 -7 -7 -25 -9 -49 -4 -28 5 -34 9 -23 16 8 5 20 7
27 4 8 -3 23 -5 35 -5z m580 -8 l38 -18 -23 -21 c-22 -20 -24 -21 -58 -5 -19
10 -34 20 -32 25 1 4 2 14 2 22 0 20 28 19 73 -3z m-308 -12 c25 -11 -1 -11
-35 0 -20 6 -21 8 -5 8 11 0 29 -3 40 -8z m760 -40 c3 -5 -1 -10 -10 -10 -9 0
-13 5 -10 10 3 6 8 10 10 10 2 0 7 -4 10 -10z m-281 -45 c3 -9 0 -15 -9 -15
-8 0 -15 7 -15 15 0 8 4 15 9 15 5 0 11 -7 15 -15z m499 8 c-7 -2 -19 -2 -25
0 -7 3 -2 5 12 5 14 0 19 -2 13 -5z m-915 -38 c-7 -6 -49 -19 -92 -28 -44 -9
-83 -22 -87 -29 -4 -7 -47 -22 -96 -34 -72 -17 -88 -25 -88 -40 0 -13 6 -18
20 -16 11 2 35 6 53 9 18 3 37 14 43 24 5 11 18 19 28 19 25 0 141 38 157 51
19 15 131 40 150 32 9 -3 20 0 24 7 11 18 71 -3 88 -31 7 -11 12 -23 10 -25
-3 -2 -34 0 -71 4 -37 5 -71 4 -75 0 -5 -5 -38 -16 -73 -23 -35 -8 -82 -23
-104 -34 -22 -10 -52 -24 -67 -30 -19 -7 -26 -15 -22 -26 4 -10 -2 -18 -17
-24 l-24 -10 23 -7 c12 -3 22 -10 22 -15 0 -5 7 -9 16 -9 24 0 -22 -35 -73
-55 -22 -9 -49 -27 -61 -39 -11 -13 -42 -32 -68 -42 -27 -10 -67 -33 -88 -51
-22 -18 -46 -33 -53 -33 -18 0 -81 -41 -113 -72 -14 -14 -37 -28 -51 -31 -15
-4 -47 -23 -70 -43 -24 -21 -62 -45 -85 -55 -22 -10 -58 -32 -80 -50 -21 -17
-57 -40 -79 -51 -53 -27 -152 -104 -165 -128 -5 -10 -10 -27 -10 -38 0 -29
-30 -82 -46 -82 -8 0 -12 5 -9 10 4 6 1 17 -5 25 -7 9 -11 44 -9 97 2 46 0 89
-5 96 -4 6 -3 12 3 12 17 0 -32 87 -57 102 l-24 15 25 16 c14 9 64 31 112 50
49 19 82 37 74 40 -8 3 2 5 22 5 20 -1 48 5 61 14 14 9 56 23 94 32 38 8 87
22 109 30 22 8 54 15 72 16 17 0 35 5 38 10 3 6 17 10 30 10 13 0 36 11 51 25
32 30 34 29 -81 5 -94 -19 -119 -15 -99 18 6 9 22 23 35 30 23 13 23 13 -9 7
-18 -4 -45 -13 -60 -21 -15 -8 -35 -14 -44 -14 -9 0 -19 -4 -22 -9 -3 -4 -24
-11 -47 -15 -23 -4 -53 -16 -67 -26 -13 -11 -33 -20 -43 -20 -10 0 -20 -4 -23
-9 -3 -4 -26 -14 -51 -21 -24 -7 -49 -18 -55 -26 -6 -7 -35 -25 -63 -39 -29
-15 -59 -33 -68 -41 -8 -8 -18 -14 -21 -14 -3 0 -21 -15 -40 -32 -50 -49 -99
-88 -108 -88 -5 0 -12 -11 -17 -24 -4 -13 -33 -51 -65 -84 -31 -33 -59 -70
-63 -83 -4 -12 -23 -43 -41 -69 -19 -26 -34 -52 -34 -59 0 -6 -4 -11 -10 -11
-5 0 -10 -12 -10 -27 -1 -16 -14 -53 -30 -83 -17 -30 -30 -67 -30 -81 0 -14
-11 -53 -25 -87 -14 -34 -25 -74 -25 -90 0 -15 -9 -53 -20 -85 -11 -31 -20
-69 -20 -84 0 -16 -5 -44 -10 -63 -17 -57 -31 -208 -31 -310 1 -54 -3 -89 -7
-82 -27 41 -3 400 33 507 9 25 15 54 14 63 -3 19 17 96 32 127 5 11 8 31 7 45
-1 22 15 70 43 122 5 10 9 28 9 41 0 26 43 122 60 132 5 3 10 22 10 41 0 22 6
37 15 40 8 4 15 11 15 18 0 6 8 19 18 28 9 9 23 24 30 33 7 8 16 13 20 11 4
-3 8 3 9 12 3 46 8 62 18 62 16 1 125 109 125 125 0 8 7 15 15 15 9 0 18 7 21
15 4 8 10 15 15 15 14 0 100 62 106 76 3 8 14 14 24 14 10 0 19 7 19 15 0 8
-6 15 -12 15 -25 0 -148 -64 -153 -79 -3 -9 -34 -36 -70 -60 -35 -24 -67 -53
-71 -64 -3 -11 -32 -47 -64 -80 -32 -33 -61 -70 -64 -82 -7 -27 -76 -135 -86
-135 -4 0 -5 -10 -3 -23 3 -14 -9 -49 -29 -88 -21 -38 -37 -86 -41 -118 -3
-29 -11 -59 -16 -65 -6 -7 -15 -45 -21 -85 -6 -40 -14 -80 -18 -89 -5 -9 -10
-37 -11 -62 -2 -25 -10 -74 -19 -110 -13 -53 -16 -120 -16 -365 l0 -300 -10
205 c-6 118 -8 254 -3 320 4 63 9 138 11 165 5 75 25 191 47 272 10 40 19 82
19 93 0 11 11 48 25 82 14 34 25 70 25 79 0 23 46 126 60 134 6 3 10 15 10 25
0 21 62 124 91 153 11 10 19 23 19 30 0 19 152 165 229 219 75 54 257 147 347
177 34 11 74 27 90 35 16 8 56 22 89 31 33 10 69 22 80 28 10 5 51 18 90 28
38 10 104 30 145 44 41 14 81 25 90 25 9 0 25 7 36 15 10 8 28 14 39 15 22 0
101 25 150 46 17 7 62 20 100 29 39 9 79 20 90 25 21 10 104 18 118 11 5 -2 3
-9 -5 -16z m466 -60 c-4 -18 -9 -23 -14 -14 -5 7 -3 20 3 30 15 24 20 18 11
-16z m-347 -31 c-3 -3 -12 -4 -19 -1 -8 3 -5 6 6 6 11 1 17 -2 13 -5z m497
-12 c23 -12 32 -23 27 -31 -6 -10 -10 -8 -15 4 -3 9 -12 15 -19 12 -7 -3 -24
4 -38 14 -20 15 -21 19 -6 19 9 0 32 -8 51 -18z m-634 -10 c0 -10 -69 -36 -77
-29 -6 6 47 36 65 37 6 0 12 -4 12 -8z m736 -30 c25 -21 48 -61 40 -70 -7 -6
-86 67 -86 80 0 14 24 8 46 -10z m76 -22 c5 0 39 -22 76 -50 36 -27 71 -50 77
-50 6 0 26 -18 44 -40 18 -22 40 -40 49 -40 10 0 29 -21 45 -50 16 -28 33 -50
39 -50 17 0 58 -41 58 -57 0 -9 8 -11 24 -7 17 4 29 -2 47 -24 25 -28 45 -31
64 -7 15 18 12 -105 -3 -130 -11 -17 -12 -15 -6 16 6 39 -13 69 -43 69 -9 0
-31 11 -49 25 -18 14 -38 25 -44 25 -19 0 -89 74 -105 113 -14 34 -35 50 -35
27 0 -7 -6 -7 -20 0 -11 6 -20 17 -20 25 0 8 -7 15 -15 15 -9 0 -27 11 -41 25
-14 14 -29 25 -34 25 -6 0 -10 7 -10 15 0 8 -7 15 -15 15 -9 0 -18 6 -21 14
-3 8 -18 20 -34 26 -16 7 -32 22 -35 34 -10 34 -15 62 -9 49 3 -7 10 -13 16
-13z m447 8 c0 -7 -4 -22 -9 -33 -7 -17 -9 -15 -9 13 -1 17 4 32 9 32 6 0 10
-6 9 -12z m-179 -13 c7 -9 10 -18 7 -21 -14 -14 98 -174 121 -174 4 0 23 -16
42 -35 19 -19 41 -35 51 -35 9 0 22 -7 29 -15 7 -8 19 -15 26 -15 8 0 41 -13
75 -30 34 -16 65 -27 70 -24 5 2 45 -13 91 -36 45 -22 88 -40 95 -40 18 0 130
-57 138 -70 3 -5 15 -10 27 -10 21 0 93 -36 116 -57 7 -7 25 -16 40 -19 28 -6
122 -64 122 -75 0 -4 -17 -9 -37 -12 -28 -5 -51 0 -91 18 -30 14 -62 25 -72
25 -10 0 -20 6 -23 14 -6 14 -76 40 -85 31 -6 -6 80 -84 93 -85 6 0 28 -12 49
-26 32 -22 37 -30 31 -52 -3 -15 -15 -34 -25 -44 -11 -9 -20 -21 -20 -28 0
-15 -20 -34 -44 -43 -15 -6 -17 -14 -13 -40 l6 -32 -16 32 c-22 43 -43 50 -44
15 -1 -23 -2 -24 -7 -7 -4 11 -16 33 -27 48 -27 38 -182 197 -192 197 -4 0
-35 30 -68 65 -32 36 -64 65 -70 65 -7 0 -18 11 -25 25 -19 36 -29 22 -24 -35
3 -32 -1 -63 -11 -87 -9 -20 -13 -43 -10 -50 4 -13 -3 -31 -27 -73 -5 -8 -11
-23 -14 -32 -4 -10 -11 -18 -16 -18 -5 0 -8 -10 -6 -23 2 -17 -24 -75 -49
-106 -2 -2 -14 2 -28 9 -31 17 -31 43 0 95 14 22 29 50 35 63 5 13 14 21 19
18 4 -3 6 6 3 20 -3 16 4 41 17 65 28 49 45 145 42 229 -1 36 -4 66 -5 68 -2
1 -14 5 -26 7 -13 3 -38 18 -55 35 -17 16 -38 30 -46 30 -9 0 -26 11 -39 25
-13 14 -28 25 -34 26 -18 0 -76 79 -76 103 0 39 -12 66 -29 66 -9 0 -24 7 -34
14 -15 12 -16 18 -7 35 13 25 33 27 50 6z m269 -6 c39 -18 42 -23 36 -47 -10
-39 -25 -44 -62 -21 -18 12 -33 17 -33 12 0 -4 -5 0 -10 9 -11 18 3 68 18 68
4 0 28 -9 51 -21z m-203 -47 c-10 -10 -29 15 -21 28 6 9 10 8 17 -4 6 -10 7
-20 4 -24z m-795 18 c17 0 9 -19 -12 -31 -20 -10 -21 -9 -17 9 3 12 3 23 -1
25 -3 2 0 2 7 0 8 -1 18 -3 23 -3z m-241 -4 c0 -3 -4 -8 -10 -11 -5 -3 -10 -1
-10 4 0 6 5 11 10 11 6 0 10 -2 10 -4z m1318 -21 c-3 -14 -1 -25 3 -25 5 0 9
7 9 15 0 24 41 18 106 -15 32 -16 67 -30 77 -30 25 0 147 -57 147 -68 0 -6 8
-8 19 -5 19 5 83 -24 133 -59 18 -12 25 -24 21 -35 -6 -14 -4 -14 18 0 23 15
27 14 92 -24 49 -30 67 -46 68 -62 0 -12 3 -16 6 -9 2 6 13 12 24 12 18 0 88
-40 116 -67 7 -6 18 -13 24 -15 15 -5 0 -58 -16 -58 -18 0 -26 25 -12 39 6 6
7 14 3 18 -4 4 -12 0 -17 -10 -13 -23 -50 -22 -82 3 -14 11 -30 20 -35 20 -5
0 -12 7 -16 15 -3 8 -12 15 -20 15 -7 0 -16 7 -20 15 -4 10 -13 14 -29 10 -15
-4 -32 1 -49 14 -14 12 -33 21 -42 21 -9 0 -16 7 -16 15 0 9 -9 15 -21 15 -17
0 -20 5 -17 25 3 14 1 25 -3 25 -5 0 -9 -4 -9 -9 0 -5 -8 -12 -18 -15 -21 -7
-112 30 -112 44 0 6 -9 10 -19 10 -10 0 -21 6 -24 14 -3 8 -15 12 -29 9 -29
-5 -120 34 -139 61 -4 5 -15 6 -25 2 -17 -7 -85 20 -92 37 -2 4 -12 7 -23 7
-22 0 -23 8 -9 44 12 34 34 34 28 1z m-240 -22 c-4 -22 -22 -20 -26 1 -2 10 3
16 13 16 10 0 15 -7 13 -17z m-1190 -5 c19 -19 15 -26 -23 -44 -31 -14 -36
-14 -50 -1 -21 22 -19 32 13 44 37 15 46 15 60 1z m249 -9 c14 -14 6 -39 -13
-39 -7 0 -30 -9 -50 -20 -20 -12 -41 -19 -48 -16 -6 2 -4 5 5 5 17 1 36 31 19
31 -5 0 -7 7 -4 15 4 8 14 15 24 15 11 0 22 5 25 10 8 13 28 13 42 -1z m975
-20 c2 -6 20 -12 40 -14 20 -1 49 -10 65 -21 15 -10 31 -19 35 -19 3 0 10 -3
14 -7 4 -5 20 -8 35 -8 15 0 31 -4 34 -10 3 -5 15 -10 26 -10 10 0 19 -4 19
-9 0 -9 33 -23 65 -26 25 -2 138 -55 146 -68 4 -5 15 -6 26 -3 22 7 113 -39
113 -57 0 -14 -30 -47 -44 -47 -13 0 -126 57 -140 71 -6 5 -22 9 -36 9 -15 0
-54 14 -88 30 -34 17 -71 30 -82 30 -10 0 -45 16 -77 34 -53 32 -59 34 -71 18
-12 -16 -14 -16 -24 3 -6 10 -24 31 -39 45 -28 26 -47 70 -31 70 6 0 12 -5 14
-11z m-352 -47 c0 -4 12 -20 26 -35 30 -32 30 -32 -12 -41 -22 -5 -35 -2 -44
9 -7 8 -19 15 -26 15 -17 0 -17 2 -2 35 7 16 19 25 35 25 12 0 23 -3 23 -8z
m-1017 -20 c19 -21 13 -32 -15 -32 -10 0 -18 -4 -18 -9 0 -5 -9 -11 -20 -14
-13 -3 -20 0 -20 9 0 8 -4 14 -10 14 -18 0 -10 22 10 27 11 3 20 9 20 14 0 16
36 9 53 -9z m245 -5 c14 -17 5 -29 -38 -50 -33 -15 -36 -15 -47 0 -18 24 -16
30 15 46 35 19 57 20 70 4z m142 -17 c0 -5 -5 -10 -11 -10 -5 0 -7 5 -4 10 3
6 8 10 11 10 2 0 4 -4 4 -10z m-1146 -44 c-6 -15 -36 -26 -69 -25 -15 0 -11 5
15 19 42 23 61 25 54 6z m620 -40 c-2 -6 -23 -19 -45 -29 -39 -17 -42 -17 -54
0 -18 24 -11 35 33 54 32 14 39 14 54 2 9 -8 15 -20 12 -27z m1236 36 c0 -5
-12 -14 -27 -21 -28 -13 -28 -13 -9 8 20 22 36 27 36 13z m-996 -18 c10 -26 7
-44 -8 -44 -8 0 -34 -11 -57 -25 -24 -14 -52 -25 -61 -25 -10 0 -18 -7 -18
-15 0 -10 -29 -30 -75 -52 -41 -19 -75 -39 -75 -44 0 -4 -34 -24 -75 -43 -41
-19 -75 -39 -75 -44 0 -4 -33 -24 -72 -43 -40 -19 -76 -39 -81 -46 -4 -6 -38
-27 -75 -45 -37 -18 -71 -38 -77 -44 -19 -23 -127 -76 -144 -71 -14 3 -16 -1
-13 -23 5 -37 -25 -85 -44 -69 -8 6 -14 18 -14 27 0 25 47 98 75 116 14 9 25
23 25 31 0 8 8 15 18 15 30 0 120 47 132 69 6 12 16 21 22 21 7 0 30 8 52 19
23 10 49 21 59 24 9 4 17 16 17 27 0 12 5 18 10 15 12 -7 136 51 147 69 5 7
35 25 68 40 33 15 68 35 78 44 29 26 121 62 132 51 14 -14 28 -11 21 6 -8 22
3 45 23 45 9 0 25 7 35 15 26 19 42 19 50 -1z m1086 -55 c25 -28 49 -58 53
-65 4 -8 13 -14 19 -14 6 0 26 -17 44 -37 l33 -37 -27 -12 c-42 -17 -46 -14
-135 85 -15 17 -33 31 -40 31 -6 0 -24 16 -39 34 l-28 35 22 15 c35 25 51 19
98 -35z m-2130 7 c0 -5 -65 -46 -74 -46 -16 0 -3 20 22 33 27 15 52 21 52 13z
m644 -35 c19 -21 14 -41 -9 -41 -7 0 -15 -3 -17 -7 -1 -5 -20 -16 -41 -26 -28
-12 -43 -14 -57 -7 -28 15 -32 12 -18 -11 12 -19 10 -24 -15 -43 -16 -11 -49
-28 -75 -37 -29 -9 -51 -24 -57 -37 -5 -12 -18 -22 -28 -22 -10 0 -15 -4 -12
-10 3 -5 -3 -10 -13 -10 -30 0 -89 -27 -95 -44 -8 -20 -130 -78 -149 -71 -11
4 -13 -2 -11 -27 5 -45 -28 -88 -51 -69 -9 7 -16 20 -16 27 0 21 60 114 73
114 7 0 17 8 24 19 6 10 42 33 80 51 37 18 72 39 76 46 4 7 41 29 81 48 40 19
76 42 79 51 4 8 12 15 20 15 7 0 32 9 56 20 23 12 50 18 61 15 14 -5 17 -2 13
14 -4 15 4 24 34 40 47 25 46 25 67 2z m391 -21 c-3 -5 -11 -10 -16 -10 -6 0
-7 5 -4 10 3 6 11 10 16 10 6 0 7 -4 4 -10z m1931 -27 c-6 -25 -5 -26 7 -10
21 26 46 21 115 -23 50 -32 61 -44 53 -54 -6 -7 -8 -16 -4 -19 3 -4 11 1 18
10 16 21 50 12 94 -25 31 -26 33 -30 20 -50 -18 -29 -25 -28 -85 11 -28 19
-58 37 -68 40 -14 6 -17 13 -11 34 6 26 6 27 -13 10 -25 -23 -37 -22 -91 11
-25 16 -54 31 -63 35 -31 11 -14 57 20 57 10 0 12 -8 8 -27z m-3146 -21 c0
-10 -31 -36 -53 -45 -24 -9 -21 0 9 28 27 25 44 32 44 17z m2195 -53 c44 -22
91 -48 105 -58 14 -9 39 -23 55 -31 17 -8 45 -32 63 -52 18 -21 50 -45 70 -55
20 -9 38 -17 40 -18 3 -2 -8 -30 -31 -85 -6 -14 -21 -39 -33 -56 -12 -17 -37
-57 -54 -90 -18 -32 -40 -68 -50 -79 -10 -11 -30 -43 -45 -72 -14 -29 -29 -55
-34 -57 -5 -3 -13 20 -19 52 -15 84 -59 251 -70 265 -5 7 -13 35 -17 62 -4 28
-13 64 -20 81 -7 17 -16 51 -20 75 -4 24 -13 66 -21 93 -23 81 -25 80 81 25z
m1474 -36 c34 -29 34 -29 15 -51 -23 -27 -36 -28 -59 -2 -10 11 -24 20 -31 20
-7 0 -18 8 -23 19 -8 14 -5 23 10 40 22 24 32 21 88 -26z m-1203 -9 c-17 -16
-36 -19 -36 -4 0 6 7 10 15 10 8 0 15 5 15 11 0 5 5 7 10 4 6 -4 5 -12 -4 -21z
m80 -29 c4 -8 12 -15 20 -15 17 0 18 -20 1 -52 -7 -14 -16 -21 -22 -16 -37 30
-85 76 -85 81 0 18 79 20 86 2z m245 -92 c5 -113 -29 -230 -66 -225 -15 2 -17
1 -6 -6 22 -15 16 -59 -14 -97 l-27 -36 -24 23 c-13 13 -24 26 -24 30 0 14 35
88 42 88 10 0 38 60 38 82 0 10 7 35 16 56 9 20 17 55 18 77 2 22 4 54 4 70
l2 30 20 -32 c11 -18 20 -45 21 -60z m923 53 c-3 -15 -8 -25 -11 -23 -2 3 -1
17 3 31 3 15 8 25 11 23 2 -3 1 -17 -3 -31z m-219 -3 c-8 -34 -13 -39 -25 -27
-13 13 -1 54 17 54 12 0 13 -7 8 -27z m89 -37 c34 -29 37 -35 27 -54 -15 -28
-19 -28 -69 9 -47 35 -46 32 -30 59 17 27 26 25 72 -14z m216 5 c31 -28 32
-29 15 -55 -10 -14 -20 -26 -24 -26 -3 0 -18 16 -34 35 -24 30 -26 37 -15 55
17 26 21 25 58 -9z m-949 -48 c17 -21 40 -42 50 -48 17 -10 99 -105 99 -115 0
-3 -9 -11 -20 -18 -18 -11 -21 -9 -30 13 -5 14 -16 25 -24 25 -9 0 -30 14 -48
32 l-32 32 -7 -25 c-5 -16 -7 -7 -8 32 -1 32 -7 63 -16 75 -36 48 -7 45 36 -3z
m789 -53 c0 -5 -5 -10 -11 -10 -5 0 -7 5 -4 10 3 6 8 10 11 10 2 0 4 -4 4 -10z
m80 -22 c16 -22 20 -35 13 -46 -16 -26 -28 -24 -51 8 -18 24 -20 34 -12 50 15
27 22 25 50 -12z m194 7 c13 -19 14 -30 6 -45 -15 -27 -34 -25 -55 6 -16 24
-16 27 1 45 22 25 28 24 48 -6z m104 -147 c-29 -22 -38 -22 -54 0 -18 24 -17
42 4 58 14 11 21 9 45 -14 l28 -26 -23 -18z m-1168 47 c14 -17 15 -17 -22 -33
-31 -13 -36 -4 -16 28 15 24 22 25 38 5z m964 -10 c13 -20 14 -28 4 -45 -17
-26 -22 -25 -43 6 -16 24 -16 27 1 45 21 23 18 24 38 -6z m-3764 -85 c-10 -23
-10 -22 -5 9 3 18 6 45 7 60 1 19 2 16 5 -9 2 -20 -1 -47 -7 -60z m2830 49 c0
-11 -4 -18 -9 -14 -5 3 -12 1 -16 -5 -8 -14 -25 -13 -25 1 0 12 29 38 43 39 4
0 7 -9 7 -21z m146 11 c15 -15 5 -80 -12 -80 -8 0 -14 7 -14 15 0 8 -6 24 -12
35 -11 17 -10 22 2 30 19 12 24 12 36 0z m644 6 c0 -3 -4 -8 -10 -11 -5 -3
-10 -1 -10 4 0 6 5 11 10 11 6 0 10 -2 10 -4z m-3505 -26 c7 -23 -2 -60 -15
-60 -17 0 -28 34 -19 58 10 27 26 28 34 2z m2635 -15 c0 -8 -4 -15 -10 -15 -5
0 -7 7 -4 15 4 8 8 15 10 15 2 0 4 -7 4 -15z m-271 -14 c29 -22 12 -38 -21
-19 -13 7 -25 14 -27 15 -5 3 10 23 17 23 4 0 18 -9 31 -19z m388 -3 c15 -20
8 -69 -10 -80 -13 -7 -17 -5 -17 10 0 11 -7 25 -15 32 -27 22 -16 47 21 49 6
1 16 -5 21 -11z m743 5 c0 -10 -20 -40 -20 -31 0 3 -3 13 -6 22 -4 11 -1 16
10 16 9 0 16 -3 16 -7z m245 -23 c17 -19 17 -21 0 -40 -17 -19 -19 -19 -37 -4
-21 20 -23 35 -6 52 16 16 22 15 43 -8z m195 10 c0 -5 9 -19 21 -31 20 -20 20
-21 2 -34 -29 -22 -50 -17 -63 14 -10 24 -9 33 2 45 15 17 38 21 38 6z m-1580
-67 c0 -7 -3 -13 -7 -13 -5 0 -19 -16 -31 -35 -23 -33 -25 -34 -48 -18 -29 18
-25 39 14 91 l25 33 23 -22 c13 -13 24 -28 24 -36z m-2250 3 c-1 -6 -7 -22
-14 -36 l-14 -25 -12 25 c-8 19 -8 33 0 55 11 29 12 29 26 11 8 -11 14 -25 14
-30z m2534 12 c14 -53 -8 -90 -66 -116 -25 -10 -28 -10 -28 8 0 30 15 63 46
98 34 38 40 39 48 10z m-154 -18 c14 -10 21 -22 17 -26 -10 -10 -57 17 -57 33
0 18 10 16 40 -7z m457 -2 c-3 -8 -6 -5 -6 6 -1 11 2 17 5 13 3 -3 4 -12 1
-19z m673 -38 c-32 -24 -40 -16 -9 9 13 11 26 17 29 14 3 -2 -6 -13 -20 -23z
m-3652 -5 c-4 -35 -22 -36 -25 -2 -1 18 3 27 13 27 11 0 14 -8 12 -25z m2516
-12 c7 -17 -43 -92 -60 -93 -7 0 -21 8 -33 18 l-22 17 30 47 c28 45 32 47 55
37 14 -7 27 -18 30 -26z m1359 11 c15 -20 16 -28 7 -39 -18 -22 -36 -18 -55
11 -13 20 -14 28 -4 40 17 20 31 17 52 -12z m-986 -26 c-3 -7 -5 -2 -5 12 0
14 2 19 5 13 2 -7 2 -19 0 -25z m1215 -18 l27 -39 -24 -15 c-23 -15 -25 -14
-54 21 -36 44 -37 49 -13 62 27 16 35 13 64 -29z m-1812 -5 c20 -24 5 -28 -21
-6 -19 16 -20 20 -8 21 9 0 22 -7 29 -15z m-2197 -60 l-9 -27 -11 23 c-7 16
-7 32 -1 49 10 25 10 25 20 3 6 -13 7 -31 1 -48z m3672 45 c3 -5 1 -10 -4 -10
-6 0 -11 5 -11 10 0 6 2 10 4 10 3 0 8 -4 11 -10z m-1500 -24 c17 -12 18 -17
7 -37 -7 -13 -22 -35 -33 -48 -18 -22 -22 -23 -44 -11 -31 17 -31 30 0 66 14
16 25 32 25 37 0 12 25 8 45 -7z m515 4 c0 -5 -4 -10 -10 -10 -5 0 -10 5 -10
10 0 6 5 10 10 10 6 0 10 -4 10 -10z m1208 -46 c23 -35 23 -37 6 -56 -18 -19
-19 -19 -46 14 -31 37 -33 49 -16 66 19 19 32 14 56 -24z m-4013 5 c0 -7 -8
-15 -17 -17 -18 -3 -25 18 -11 32 10 10 28 1 28 -15z m2586 -2 c-10 -9 -11 -8
-5 6 3 10 9 15 12 12 3 -3 0 -11 -7 -18z m-145 -1 c10 -8 17 -17 14 -19 -3 -3
-16 3 -30 13 -29 22 -14 27 16 6z m1802 -59 l30 -42 -25 -18 c-19 -15 -27 -16
-38 -7 -8 7 -15 17 -15 23 0 6 -7 19 -17 29 -15 17 -15 19 3 38 10 10 22 19
26 19 4 1 20 -18 36 -42z m-1837 23 c25 -14 24 -39 -6 -74 -21 -27 -26 -29
-49 -18 -33 15 -33 25 2 68 31 39 27 37 53 24z m111 -42 c-7 -7 -12 -8 -12 -2
0 14 12 26 19 19 2 -3 -1 -11 -7 -17z m105 0 c-3 -8 -6 -5 -6 6 -1 11 2 17 5
13 3 -3 4 -12 1 -19z m1277 13 c3 -5 -1 -11 -9 -14 -9 -4 -12 -1 -8 9 6 16 10
17 17 5z m-3804 -27 c0 -31 -23 -28 -28 4 -2 15 2 22 12 22 11 0 16 -9 16 -26z
m2104 11 c11 -8 18 -17 15 -19 -2 -3 -15 4 -29 14 -14 11 -20 20 -15 19 6 0
19 -6 29 -14z m1856 -10 c-7 -8 -17 -15 -23 -15 -6 0 -2 7 9 15 25 19 30 19
14 0z m-4075 -25 c7 -23 -2 -43 -16 -35 -12 8 -12 55 0 55 5 0 12 -9 16 -20z
m2205 -21 c0 -27 -36 -52 -65 -45 -33 8 -32 31 2 60 22 19 31 21 45 12 10 -6
18 -18 18 -27z m597 25 c-3 -3 -12 -4 -19 -1 -8 3 -5 6 6 6 11 1 17 -2 13 -5z
m1347 -36 c22 -31 27 -45 19 -57 -17 -27 -37 -23 -57 11 -11 18 -24 36 -30 40
-7 4 -3 14 9 27 11 11 22 20 25 20 3 0 18 -18 34 -41z m-1187 -10 c-3 -8 -6
-5 -6 6 -1 11 2 17 5 13 3 -3 4 -12 1 -19z m1346 0 c-13 -12 -26 -18 -30 -14
-4 4 1 14 11 22 31 22 43 17 19 -8z m-1416 -20 c-3 -8 -6 -5 -6 6 -1 11 2 17
5 13 3 -3 4 -12 1 -19z m-567 -16 l21 -17 -25 -24 c-18 -17 -32 -22 -50 -17
-32 8 -33 23 -4 53 26 28 30 28 58 5z m2064 -22 c32 -49 32 -52 -1 -67 -22
-11 -29 -10 -45 4 -10 9 -18 22 -18 28 0 7 -7 18 -15 25 -14 12 -14 15 1 31
26 29 49 23 78 -21z m-4294 -1 c0 -10 -4 -19 -10 -19 -5 0 -10 12 -10 26 0 14
4 23 10 19 6 -3 10 -15 10 -26z m-100 -40 c0 -10 -4 -20 -9 -24 -15 -9 -33 33
-25 57 6 21 7 21 20 3 8 -10 14 -27 14 -36z m4196 6 c-9 -9 -16 -13 -16 -8 0
12 22 34 28 28 2 -2 -3 -11 -12 -20z m79 -55 c30 -48 30 -52 5 -67 -17 -11
-22 -9 -43 20 -37 49 -39 56 -25 71 21 24 36 18 63 -24z m149 -11 c-19 -21
-34 -25 -34 -8 0 15 44 50 49 38 1 -6 -5 -19 -15 -30z m-2181 -12 c-3 -4 -11
-2 -20 4 -12 10 -16 10 -24 -2 -7 -12 -9 -12 -9 2 0 9 2 18 5 21 9 8 54 -15
48 -25z m-2163 -8 c0 -10 -4 -19 -10 -19 -5 0 -10 12 -10 26 0 14 4 23 10 19
6 -3 10 -15 10 -26z m4419 -25 c17 -25 31 -49 31 -53 0 -5 -12 -16 -26 -26
-24 -16 -27 -16 -45 1 -10 9 -19 22 -19 27 0 6 -7 19 -17 29 -15 17 -15 20 7
43 13 14 27 25 31 25 4 0 21 -20 38 -46z m-4515 14 c8 -32 7 -48 -2 -48 -12 0
-30 42 -25 58 7 19 20 14 27 -10z m4346 -36 c0 -13 -39 -46 -46 -40 -8 9 19
48 33 48 7 0 13 -4 13 -8z m-2440 -32 c0 -5 -4 -10 -10 -10 -5 0 -10 5 -10 10
0 6 5 10 10 10 6 0 10 -4 10 -10z m-1818 -62 c-8 -8 -13 -3 -17 15 -10 38 6
58 18 23 6 -18 6 -31 -1 -38z m4321 15 c26 -43 27 -47 11 -64 -28 -32 -46 -21
-80 48 -13 27 -14 34 -2 47 22 26 42 17 71 -31z m-2443 27 c0 -5 -9 -10 -20
-10 -11 0 -20 5 -20 10 0 6 9 10 20 10 11 0 20 -4 20 -10z m-1972 -34 c3 -20
0 -27 -10 -24 -7 3 -14 17 -16 32 -3 20 0 27 10 24 7 -3 14 -17 16 -32z m4572
24 c0 -12 -32 -50 -42 -50 -12 0 -9 29 5 45 14 16 37 20 37 5z m-110 -99 c0
-11 -6 -21 -12 -24 -7 -2 -9 -8 -5 -13 4 -5 12 -2 17 5 13 21 33 8 58 -40 23
-42 23 -43 3 -62 -27 -28 -47 -16 -72 42 -12 28 -25 51 -30 51 -14 0 -10 18 8
40 22 25 33 25 33 1z m-4372 -32 l2 -34 -15 25 c-18 31 -19 53 -2 48 6 -3 13
-20 15 -39z m-98 11 c11 -21 5 -60 -10 -60 -10 0 -20 49 -13 67 7 18 10 16 23
-7z m96 -105 c4 -14 3 -29 -1 -33 -10 -10 -35 28 -28 44 8 22 22 16 29 -11z
m-795 -122 l-8 -48 -7 57 c-5 31 -5 62 0 69 13 22 23 -26 15 -78z m3336 -299
c-3 -3 -12 -4 -19 -1 -8 3 -5 6 6 6 11 1 17 -2 13 -5z m-1220 -156 c-2 -13 -4
-3 -4 22 0 25 2 35 4 23 2 -13 2 -33 0 -45z m-30 -240 c-3 -7 -5 -2 -5 12 0
14 2 19 5 13 2 -7 2 -19 0 -25z m1107 -33 c-4 -8 -10 -15 -15 -15 -5 0 -9 7
-9 15 0 8 7 15 15 15 9 0 12 -6 9 -15z"/>
<path d="M7760 3162 c0 -5 -27 -12 -60 -16 -43 -5 -63 -12 -70 -26 -6 -12 -17
-16 -30 -13 -11 3 -20 0 -20 -6 0 -20 159 4 167 25 3 8 16 14 30 14 15 0 23 5
21 13 -5 14 -38 23 -38 9z"/>
<path d="M7935 3140 c-3 -5 1 -10 9 -10 9 0 16 5 16 10 0 6 -4 10 -9 10 -6 0
-13 -4 -16 -10z"/>
<path d="M7888 3127 c-7 -8 -30 -19 -51 -26 -40 -13 -53 -26 -37 -36 16 -10
90 14 90 30 0 8 7 15 15 15 17 0 20 16 6 25 -5 3 -15 -1 -23 -8z"/>
<path d="M7480 3083 c-13 -3 -29 -11 -35 -19 -5 -7 -46 -19 -90 -26 -64 -10
-80 -17 -83 -32 -4 -17 1 -18 45 -11 26 4 55 13 64 21 8 8 22 14 31 14 8 0 17
3 21 6 3 4 24 8 45 9 43 3 82 20 82 35 0 10 -35 11 -80 3z"/>
<path d="M7728 3073 c-16 -2 -28 -8 -28 -12 0 -5 -20 -14 -45 -20 -25 -6 -45
-16 -45 -21 0 -16 30 -24 42 -12 6 6 16 8 22 6 7 -3 23 7 36 21 13 14 29 25
36 25 7 0 16 5 19 10 3 6 3 9 -2 9 -4 -1 -20 -4 -35 -6z"/>
<path d="M7571 3021 c-7 -5 -21 -7 -30 -4 -10 2 -23 -3 -30 -11 -8 -9 -23 -16
-35 -16 -11 0 -28 -5 -36 -10 -13 -8 -13 -12 3 -27 17 -16 19 -17 30 -2 7 9
17 14 24 12 6 -2 19 5 30 15 10 11 28 23 41 26 12 4 22 12 22 17 0 11 -1 11
-19 0z"/>
<path d="M7220 2990 c0 -5 7 -10 15 -10 8 0 15 5 15 10 0 6 -7 10 -15 10 -8 0
-15 -4 -15 -10z"/>
<path d="M7130 2967 c-47 -15 -70 -47 -32 -47 37 0 112 34 112 51 0 12 -35 10
-80 -4z"/>
<path d="M7610 2930 c-13 -9 -13 -10 0 -10 8 0 22 5 30 10 13 9 13 10 0 10 -8
0 -22 -5 -30 -10z"/>
<path d="M7035 2922 c-11 -9 -96 -37 -106 -34 -4 1 -15 -8 -25 -19 -14 -15
-15 -22 -5 -32 9 -9 18 -8 42 6 17 9 37 17 45 17 7 0 19 9 26 20 7 11 23 20
36 20 14 0 22 5 20 12 -6 16 -21 20 -33 10z"/>
<path d="M6940 2404 c0 -8 5 -12 10 -9 6 4 8 11 5 16 -9 14 -15 11 -15 -7z"/>
<path d="M6961 2354 c0 -11 3 -14 6 -6 3 7 2 16 -1 19 -3 4 -6 -2 -5 -13z"/>
<path d="M9567 2764 c-6 -6 15 -64 24 -64 12 0 7 59 -6 64 -7 2 -15 2 -18 0z"/>
<path d="M9615 2730 c-9 -15 -1 -23 21 -18 15 3 16 4 1 16 -11 9 -17 10 -22 2z"/>
<path d="M9948 2563 c7 -3 16 -2 19 1 4 3 -2 6 -13 5 -11 0 -14 -3 -6 -6z"/>
<path d="M9225 2730 c-3 -5 -1 -10 4 -10 6 0 11 5 11 10 0 6 -2 10 -4 10 -3 0
-8 -4 -11 -10z"/>
<path d="M7404 4256 c-11 -30 57 -83 91 -70 23 9 18 30 -16 58 -34 29 -67 34
-75 12z"/>
<path d="M2625 4251 c-114 -28 -183 -109 -172 -202 9 -77 52 -145 109 -175 62
-32 182 -7 238 51 25 26 33 43 36 82 l4 48 -14 -48 c-18 -61 -39 -85 -83 -93
-50 -9 -79 8 -108 65 -31 62 -31 78 -2 87 12 4 57 20 99 36 76 29 77 30 67 56
-15 41 -59 81 -98 92 -20 5 -38 9 -41 9 -3 -1 -18 -4 -35 -8z m21 -86 c14 -30
23 -59 20 -64 -3 -5 -20 -14 -36 -20 -28 -9 -32 -8 -41 17 -15 39 -22 89 -16
107 4 8 16 15 27 15 16 0 27 -14 46 -55z"/>
<path d="M6970 4220 c0 -5 7 -10 15 -10 8 0 15 5 15 10 0 6 -7 10 -15 10 -8 0
-15 -4 -15 -10z"/>
<path d="M7503 4175 c-3 -9 -3 -18 -1 -21 9 -9 38 8 38 22 0 19 -29 18 -37 -1z"/>
<path d="M7535 4150 c-8 -14 38 -66 66 -73 10 -3 26 1 36 8 17 12 16 15 -11
40 -32 30 -80 43 -91 25z"/>
<path d="M9790 4110 c-19 -16 -45 -32 -58 -35 -25 -6 -95 -49 -126 -77 -11
-10 -25 -18 -32 -18 -6 0 -40 -19 -75 -43 -35 -23 -77 -49 -94 -57 -16 -8 -32
-17 -35 -20 -16 -16 -88 -60 -99 -60 -7 0 -41 -20 -75 -45 -35 -25 -67 -45
-72 -45 -4 0 -30 -15 -58 -34 -54 -35 -154 -94 -235 -136 -26 -14 -67 -39 -92
-56 -24 -17 -52 -33 -61 -37 -22 -8 -23 -23 -2 -31 15 -6 127 45 138 63 3 5
34 23 68 41 35 18 72 40 83 50 11 9 46 30 78 45 31 15 61 33 65 39 4 7 37 26
74 43 36 18 70 38 75 45 4 7 22 20 38 28 17 8 42 23 58 33 15 10 27 15 27 10
0 -4 8 2 18 14 9 11 44 35 77 52 33 18 65 38 71 46 6 8 39 28 73 44 34 16 68
36 74 44 7 8 44 31 82 51 85 45 95 54 75 66 -21 13 -21 13 -60 -20z"/>
<path d="M7634 4069 c-8 -14 11 -33 25 -25 6 4 11 14 11 22 0 16 -26 19 -36 3z"/>
<path d="M7665 4039 c-9 -13 53 -69 76 -69 9 0 20 -7 23 -16 4 -9 13 -14 22
-10 8 3 13 2 9 -3 -7 -13 53 -71 73 -71 9 0 24 5 32 10 13 9 11 13 -10 31 -14
11 -40 27 -57 35 -18 8 -33 19 -33 25 0 6 -7 9 -15 5 -10 -3 -15 1 -15 14 0
39 -87 79 -105 49z"/>
<path d="M1865 3958 c-71 -26 -140 -52 -152 -57 l-21 -10 21 -73 22 -73 7 59
c9 66 38 107 89 125 27 9 28 8 23 -17 -12 -67 -53 -367 -50 -369 3 -3 216 73
289 102 22 9 22 13 -5 99 l-22 71 -7 -58 c-3 -32 -12 -70 -20 -83 -12 -24 -76
-71 -84 -62 -2 2 7 80 21 173 14 94 23 182 22 196 l-3 25 -130 -48z"/>
<path d="M3758 3879 l-57 -39 16 -46 c14 -42 14 -46 -3 -59 -18 -14 -18 -15 4
-12 21 2 28 -10 72 -128 58 -154 80 -180 146 -172 70 7 117 37 133 85 11 31
12 46 4 64 -11 21 -12 20 -12 -18 -1 -64 -47 -96 -75 -51 -22 33 -107 268
-100 278 2 5 23 14 44 20 22 7 40 16 40 21 0 11 -3 10 -50 -8 -24 -10 -45 -13
-49 -8 -5 5 -16 33 -26 62 -9 28 -20 52 -23 51 -4 0 -33 -18 -64 -40z"/>
<path d="M1033 3885 c-19 -13 -23 -25 -22 -68 1 -29 4 -65 8 -82 6 -30 7 -29
44 38 42 75 46 120 12 125 -11 1 -30 -5 -42 -13z"/>
<path d="M3500 3872 c-32 -16 -35 -21 -35 -61 0 -36 5 -47 26 -64 24 -17 31
-18 63 -7 62 20 78 91 30 129 -32 25 -39 26 -84 3z"/>
<path d="M7255 3870 c3 -5 11 -10 16 -10 6 0 7 5 4 10 -3 6 -11 10 -16 10 -6
0 -7 -4 -4 -10z"/>
<path d="M7900 3855 c0 -8 7 -15 15 -15 8 0 15 -5 15 -10 0 -22 55 -59 87 -60
26 0 30 -3 26 -20 -6 -23 9 -26 27 -5 10 12 5 21 -27 50 -21 19 -53 41 -70 47
-18 7 -33 16 -33 20 0 4 -9 8 -20 8 -11 0 -20 -7 -20 -15z"/>
<path d="M1505 3841 c-114 -28 -183 -109 -172 -202 9 -77 52 -145 109 -175 62
-32 182 -7 238 51 25 26 33 43 36 82 l4 48 -14 -48 c-18 -61 -39 -85 -83 -93
-50 -9 -79 8 -108 65 -31 62 -31 78 -2 87 12 4 57 20 99 36 76 29 77 30 67 56
-15 41 -59 81 -98 92 -20 5 -38 9 -41 9 -3 -1 -18 -4 -35 -8z m21 -86 c14 -30
23 -59 20 -64 -3 -5 -20 -14 -36 -20 -28 -9 -32 -8 -41 17 -15 39 -22 89 -16
107 4 8 16 15 27 15 16 0 27 -14 46 -55z"/>
<path d="M4239 3796 l52 -53 -6 -74 c-8 -84 -7 -84 53 13 45 73 50 89 28 107
-14 12 -151 61 -170 61 -6 0 13 -24 43 -54z"/>
<path d="M6225 3729 c-11 -17 1 -21 15 -4 8 9 8 15 2 15 -6 0 -14 -5 -17 -11z"/>
<path d="M8080 3730 c-12 -8 -9 -14 20 -39 36 -31 48 -35 74 -25 22 9 19 26
-8 46 -31 23 -68 30 -86 18z"/>
<path d="M7590 3712 c0 -4 15 -13 33 -20 l32 -12 -25 20 c-27 21 -40 25 -40
12z"/>
<path d="M1125 3701 c-114 -28 -183 -109 -172 -202 9 -77 52 -145 109 -175 62
-32 182 -7 238 51 25 26 33 43 36 82 l4 48 -15 -50 c-15 -53 -41 -81 -83 -92
-43 -10 -75 9 -104 62 -34 61 -35 82 -5 91 12 4 57 20 99 36 76 29 77 30 67
56 -15 41 -59 81 -98 92 -20 5 -38 9 -41 9 -3 -1 -18 -4 -35 -8z m21 -86 c14
-30 23 -59 20 -64 -3 -5 -20 -14 -36 -20 -28 -9 -32 -8 -41 17 -15 39 -22 89
-16 107 4 8 16 15 27 15 16 0 27 -14 46 -55z"/>
<path d="M2921 3697 c-19 -6 -51 -27 -72 -46 -47 -46 -58 -94 -37 -173 14 -56
14 -58 -6 -73 -21 -16 -21 -16 4 -11 24 5 27 -1 79 -142 29 -81 56 -153 59
-160 2 -8 -4 -16 -17 -19 -11 -3 -19 -9 -16 -13 4 -6 92 23 254 85 8 3 11 8 8
11 -3 4 -24 -1 -47 -10 -40 -16 -41 -16 -49 6 -56 152 -100 276 -103 286 -2 8
14 20 37 29 46 19 50 21 43 28 -3 3 -21 -2 -41 -10 -20 -8 -40 -15 -45 -15
-10 0 -62 147 -62 176 0 26 24 48 45 40 17 -6 21 -46 5 -46 -17 0 -11 -36 8
-53 43 -39 120 -2 107 51 -16 66 -70 86 -154 59z"/>
<path d="M3548 3682 c-70 -28 -101 -49 -58 -39 24 6 27 1 79 -141 29 -81 56
-153 59 -160 2 -8 -4 -16 -17 -19 -11 -3 -19 -9 -16 -13 3 -4 50 9 105 29 101
38 135 56 91 49 -21 -3 -27 8 -83 160 -45 122 -64 162 -77 161 -9 0 -46 -13
-83 -27z"/>
<path d="M6125 3670 c-3 -5 -15 -10 -25 -10 -19 0 -36 -17 -27 -27 7 -6 67 29
67 39 0 11 -8 10 -15 -2z"/>
<path d="M8190 3656 c0 -10 9 -16 21 -16 24 0 21 23 -4 28 -10 2 -17 -3 -17
-12z"/>
<path d="M397 3607 c-3 -9 -28 -17 -64 -21 -67 -7 -155 -45 -196 -84 -67 -63
-89 -151 -63 -252 35 -134 112 -221 210 -235 59 -9 157 17 228 60 31 19 63 35
72 35 21 0 20 3 -7 85 -26 77 -47 96 -47 43 0 -60 -28 -135 -61 -162 -78 -66
-161 -2 -229 176 -61 158 -63 237 -9 282 50 42 106 30 188 -41 23 -19 44 -33
47 -31 4 4 -51 146 -60 155 -2 2 -6 -2 -9 -10z"/>
<path d="M5955 3606 c-21 -9 -26 -14 -16 -20 14 -9 61 11 61 26 0 11 -9 10
-45 -6z"/>
<path d="M3267 3581 c-65 -21 -104 -44 -129 -75 -30 -37 -19 -94 22 -116 29
-15 87 11 95 43 8 29 -9 67 -29 67 -21 0 -27 28 -10 45 9 8 18 15 22 15 22 -1
50 -45 77 -121 l14 -40 -54 -24 c-74 -32 -105 -65 -105 -110 0 -52 36 -85 92
-85 52 0 105 30 114 64 6 24 7 24 30 10 40 -27 137 6 154 51 9 25 2 95 -10 95
-3 0 -5 -13 -2 -30 2 -16 1 -37 -2 -47 -11 -29 -33 4 -76 117 -58 152 -93 176
-203 141z m89 -255 c18 -57 14 -86 -10 -86 -9 0 -22 21 -32 54 -14 45 -15 58
-4 70 20 25 28 19 46 -38z"/>
<path d="M802 3575 c-22 -10 -39 -28 -51 -55 -18 -40 -19 -41 -25 -16 -8 32
-14 32 -101 0 -72 -28 -111 -50 -65 -39 24 6 27 1 79 -142 30 -81 56 -154 59
-161 2 -8 -5 -16 -17 -19 -11 -3 -19 -9 -16 -13 6 -9 225 70 225 81 0 5 -11 4
-25 -1 -22 -8 -27 -6 -34 13 -57 154 -72 203 -73 235 0 49 17 82 42 82 24 0
26 -25 4 -38 -13 -7 -13 -13 -3 -35 15 -34 48 -43 86 -25 23 11 28 20 31 53 4
72 -50 109 -116 80z"/>
<path d="M2682 3365 c-22 -10 -39 -28 -51 -55 -18 -40 -19 -41 -25 -16 -8 32
-14 32 -101 0 -73 -28 -111 -51 -65 -41 24 6 27 1 79 -141 29 -81 56 -153 59
-160 2 -8 -4 -16 -17 -19 -11 -3 -19 -9 -16 -13 6 -9 225 70 225 81 0 5 -11 4
-25 -1 -22 -8 -27 -6 -34 13 -57 154 -72 203 -73 235 0 49 17 82 42 82 24 0
26 -25 4 -38 -13 -7 -13 -13 -3 -35 15 -34 48 -43 86 -25 23 11 28 20 31 53 4
72 -50 109 -116 80z"/>
<path d="M2217 3191 c-65 -21 -104 -44 -129 -75 -30 -37 -19 -94 22 -116 29
-15 87 11 95 43 8 29 -9 67 -29 67 -21 0 -27 28 -10 45 9 8 18 15 22 15 22 -1
50 -45 77 -121 l14 -40 -54 -24 c-74 -32 -105 -65 -105 -110 0 -52 36 -85 92
-85 52 0 105 30 114 64 6 24 7 24 30 10 40 -27 137 6 154 51 9 25 2 95 -10 95
-3 0 -5 -13 -2 -30 2 -16 1 -37 -2 -47 -11 -29 -33 4 -76 117 -58 152 -93 176
-203 141z m89 -255 c18 -57 14 -86 -10 -86 -9 0 -22 21 -32 54 -14 45 -15 58
-4 70 20 25 28 19 46 -38z"/>
<path d="M1850 3062 c-19 -9 -42 -32 -52 -50 -15 -30 -17 -32 -23 -13 -8 27
-12 26 -101 -5 -71 -26 -115 -54 -63 -41 23 6 27 -2 112 -232 48 -131 87 -243
87 -249 0 -7 -7 -12 -15 -12 -8 0 -15 -5 -15 -11 0 -6 6 -9 13 -7 83 30 253
92 256 95 2 2 2 5 -1 8 -3 3 -24 -2 -48 -10 -23 -8 -44 -15 -45 -15 -3 0 -65
167 -65 174 0 1 13 1 29 -2 42 -6 117 31 141 70 46 72 1 239 -78 293 -43 29
-84 32 -132 7z m40 -106 c16 -35 39 -98 51 -139 19 -63 20 -78 10 -91 -18 -21
-44 -20 -65 3 -21 24 -86 195 -86 228 0 36 18 63 41 63 15 0 27 -16 49 -64z"/>
<path d="M3248 2824 c-57 -30 -65 -98 -19 -145 34 -33 75 -38 121 -14 36 19
50 43 50 88 0 71 -82 110 -152 71z"/>
<path d="M4074 2735 c43 -104 43 -149 1 -221 -63 -107 -221 -145 -390 -95 -84
25 -126 26 -188 5 -65 -22 -137 -102 -172 -193 l-27 -69 -57 26 c-81 37 -202
43 -265 13 -56 -27 -97 -73 -137 -153 -64 -126 -172 -208 -276 -208 -96 0
-159 39 -199 125 l-24 50 3 -101 c2 -94 5 -107 40 -176 63 -129 191 -230 328
-259 78 -17 192 -6 269 25 165 67 291 213 356 416 15 47 29 87 30 89 2 2 18
-6 36 -17 93 -57 257 -102 370 -102 186 0 370 108 447 261 96 193 50 439 -109
568 -32 27 -42 31 -36 16z"/>
<path d="M2748 2584 c-65 -35 -73 -121 -17 -168 54 -46 143 -25 174 41 20 42
13 78 -23 116 -30 31 -88 36 -134 11z"/>
<path d="M7219 938 c-1 -7 -1 -16 0 -20 0 -5 -3 -8 -9 -8 -5 0 -10 -7 -10 -15
0 -18 -17 -20 -23 -2 -2 6 -9 -6 -16 -28 -15 -54 -14 -161 2 -175 6 -6 23 -19
36 -30 13 -11 19 -20 13 -20 -7 0 -12 -13 -12 -29 0 -23 7 -32 29 -42 33 -15
45 -43 30 -71 -12 -22 -4 -39 16 -32 14 6 36 -14 84 -75 14 -17 34 -34 45 -37
11 -4 24 -10 30 -15 6 -5 25 -20 42 -34 18 -14 39 -25 48 -25 9 0 26 -9 37
-19 12 -11 33 -22 47 -26 14 -3 42 -14 61 -22 20 -9 38 -17 41 -17 3 -1 16 -9
30 -18 14 -9 39 -20 55 -24 17 -4 35 -11 41 -15 6 -5 44 -18 85 -28 114 -30
123 -33 131 -45 5 -8 11 -7 19 1 10 10 16 10 29 -2 9 -8 21 -11 29 -6 18 12
12 18 -351 381 -170 169 -308 310 -308 312 0 11 -67 78 -78 78 -7 0 -12 5 -12
10 0 6 -6 10 -12 10 -7 0 -29 15 -50 33 -75 67 -97 79 -99 55z"/>
<path d="M7225 500 c3 -5 11 -10 16 -10 6 0 7 5 4 10 -3 6 -11 10 -16 10 -6 0
-7 -4 -4 -10z"/>
</g>
</svg>
