<?xml version="1.0" standalone="no"?>
<!DOCTYPE svg PUBLIC "-//W3C//DTD SVG 20010904//EN"
 "http://www.w3.org/TR/2001/REC-SVG-20010904/DTD/svg10.dtd">
<svg version="1.0" xmlns="http://www.w3.org/2000/svg"
 width="359.000000pt" height="158.000000pt" viewBox="0 0 359.000000 158.000000"
 preserveAspectRatio="xMidYMid meet">

<g transform="translate(0.000000,158.000000) scale(0.100000,-0.100000)"
fill="#000000" stroke="none">
<path d="M1540 1572 c0 -24 33 -102 43 -102 30 1 35 15 18 60 -12 32 -23 46
-39 48 -12 2 -22 -1 -22 -6z"/>
<path d="M1482 1552 c-19 -13 21 -102 46 -102 29 0 31 8 11 48 -11 20 -19 42
-19 49 0 15 -19 17 -38 5z"/>
<path d="M1403 1523 c-8 -3 -9 -10 -3 -21 5 -9 15 -32 22 -49 13 -33 23 -38
51 -27 12 4 12 10 -4 40 -30 59 -40 68 -66 57z"/>
<path d="M1153 1504 c-14 -6 -4 -41 43 -150 7 -17 14 -20 31 -14 l21 9 -31 80
c-29 77 -36 86 -64 75z"/>
<path d="M1357 1496 c-8 -20 20 -43 35 -28 8 8 8 15 -2 27 -16 19 -26 19 -33
1z"/>
<path d="M1295 1468 c11 -34 19 -39 39 -25 17 13 17 14 1 30 -25 25 -48 22
-40 -5z"/>
<path d="M1249 1456 c-23 -50 13 -101 62 -89 16 5 16 6 -1 23 -10 10 -21 32
-25 49 -9 41 -22 48 -36 17z"/>
<path d="M1380 1445 c-16 -19 -6 -45 18 -45 27 0 31 8 18 35 -13 29 -19 30
-36 10z"/>
<path d="M1120 1415 c-29 -35 13 -115 54 -99 13 5 12 10 -5 37 -10 18 -19 42
-19 55 0 25 -12 29 -30 7z"/>
<path d="M1034 1375 c3 -8 8 -21 11 -28 4 -8 -5 -18 -20 -25 -34 -16 -30 -46
8 -50 30 -4 32 0 17 29 -7 13 -7 19 0 19 5 0 10 -7 10 -15 0 -14 40 -22 52
-10 2 3 -5 25 -16 50 -16 35 -26 45 -45 45 -17 0 -21 -4 -17 -15z"/>
<path d="M997 1374 c-4 -4 -7 -16 -7 -26 0 -20 25 -25 36 -7 8 13 -19 43 -29
33z"/>
<path d="M938 1354 c-10 -9 4 -44 18 -44 21 0 25 17 8 34 -17 18 -18 18 -26
10z"/>
<path d="M898 1333 c-40 -44 -6 -113 49 -98 19 6 23 9 11 12 -17 4 -35 41 -40
82 -3 23 -3 23 -20 4z"/>
<path d="M641 1311 c-12 -8 -10 -22 16 -87 31 -80 39 -90 61 -76 10 7 6 26
-16 87 -30 82 -37 91 -61 76z"/>
<path d="M2275 1300 c10 -11 20 -20 23 -20 3 0 -3 9 -13 20 -10 11 -20 20 -23
20 -3 0 3 -9 13 -20z"/>
<path d="M1790 1290 c-28 -24 -31 -25 -23 -4 5 14 3 15 -15 5 -39 -21 -73
-113 -48 -128 8 -4 16 -18 18 -31 1 -12 7 -22 12 -22 5 1 13 -4 17 -12 6 -8 9
1 9 27 0 41 27 92 78 148 14 15 21 27 15 27 -6 0 -18 2 -25 5 -8 3 -25 -3 -38
-15z m30 -14 c0 -3 -4 -8 -10 -11 -5 -3 -10 -1 -10 4 0 6 5 11 10 11 6 0 10
-2 10 -4z m-78 -38 c-7 -7 -12 -8 -12 -2 0 14 12 26 19 19 2 -3 -1 -11 -7 -17z
m42 -3 c-4 -8 -10 -15 -15 -15 -4 0 -6 7 -3 15 4 8 10 15 15 15 4 0 6 -7 3
-15z m-54 -32 c0 -5 -5 -15 -10 -23 -8 -12 -10 -11 -10 8 0 12 5 22 10 22 6 0
10 -3 10 -7z m22 -25 c-7 -7 -12 -8 -12 -2 0 14 12 26 19 19 2 -3 -1 -11 -7
-17z m-7 -48 c3 -5 1 -10 -4 -10 -6 0 -11 5 -11 10 0 6 2 10 4 10 3 0 8 -4 11
-10z"/>
<path d="M777 1294 c-3 -3 -1 -16 5 -29 7 -15 16 -21 29 -18 25 7 24 29 0 43
-23 12 -26 12 -34 4z"/>
<path d="M2196 1278 c26 -20 126 -122 158 -161 7 -9 39 -17 84 -20 l73 -6 -36
25 c-41 27 -53 31 -35 9 9 -11 9 -15 1 -15 -14 0 -96 60 -190 137 -36 29 -69
53 -75 53 -5 0 4 -10 20 -22z"/>
<path d="M2230 1293 c1 -10 100 -87 105 -81 2 2 -10 15 -27 28 -17 14 -38 33
-47 43 -16 18 -31 23 -31 10z"/>
<path d="M2140 1280 c0 -5 -8 -6 -17 -3 -16 6 -16 5 -4 -11 11 -13 16 -14 22
-4 7 10 11 10 21 -1 10 -11 10 -14 0 -18 -17 -7 35 -68 60 -69 14 -1 16 2 7
13 -7 7 -14 11 -17 8 -7 -7 -32 15 -32 27 0 6 8 4 17 -3 10 -8 3 5 -16 29 -34
43 -41 49 -41 32z"/>
<path d="M728 1255 c-16 -35 12 -75 52 -75 29 0 30 0 11 19 -10 10 -22 33 -26
50 -8 37 -21 40 -37 6z"/>
<path d="M2311 1267 c2 -1 15 -11 29 -22 l25 -20 -19 23 c-11 12 -24 22 -29
22 -6 0 -8 -1 -6 -3z"/>
<path d="M2917 1231 c-54 -31 -77 -51 -60 -51 6 0 16 7 23 15 7 8 17 15 22 15
5 0 14 5 21 10 7 6 21 17 32 25 33 24 13 17 -38 -14z"/>
<path d="M2117 1232 l23 -20 -63 4 c-58 3 -59 3 -19 -6 54 -12 68 -20 51 -31
-10 -6 -7 -11 11 -19 36 -16 70 -36 83 -49 17 -17 8 -14 -56 18 -65 34 -157
56 -193 47 -33 -9 -23 -22 22 -29 38 -6 347 -145 352 -158 2 -4 17 -3 34 2 17
5 43 6 57 3 21 -4 23 -3 11 5 -11 9 -4 10 33 8 51 -4 77 -17 35 -17 -42 0 -89
-21 -98 -45 -5 -12 -23 -30 -42 -39 -80 -42 -248 -156 -255 -173 -8 -21 -20
-6 -21 27 0 17 -6 37 -11 44 -9 11 8 20 77 43 67 22 86 32 76 40 -23 22 -156
-37 -216 -95 -21 -20 -38 -31 -38 -24 0 6 8 16 19 21 24 13 38 46 16 37 -17
-6 -21 9 -4 20 6 3 15 0 20 -7 7 -12 12 -11 26 5 17 18 17 18 -7 11 -23 -7
-24 -7 -10 11 14 17 12 17 -20 -2 -93 -54 -149 -184 -157 -365 -5 -113 8 -219
27 -219 4 0 7 32 6 72 -4 106 36 296 71 339 7 8 13 20 13 25 1 11 50 68 54 63
2 -2 14 -28 26 -57 21 -49 23 -63 17 -181 l-6 -128 35 -37 c20 -21 37 -36 39
-34 2 2 7 44 10 93 7 92 18 161 35 224 10 36 26 50 115 95 22 12 42 24 43 29
2 4 8 7 13 7 5 0 53 24 106 54 118 66 161 76 187 47 29 -31 39 -26 33 17 -5
27 -4 33 4 19 5 -9 12 -47 15 -85 3 -37 16 -107 29 -157 16 -58 21 -93 15 -99
-14 -14 -14 -13 -38 104 -31 152 -31 152 -27 75 2 -38 11 -99 20 -134 9 -36
14 -73 12 -83 -6 -22 6 -23 28 -2 9 9 18 14 21 12 2 -3 -5 -13 -16 -23 -18
-16 -18 -19 -3 -30 13 -9 13 -14 3 -20 -9 -6 -11 -4 -5 5 6 10 4 12 -9 7 -10
-4 -23 -7 -29 -7 -6 0 -2 -7 9 -15 18 -14 17 -14 -9 -5 -23 8 -37 5 -75 -15
-95 -49 -99 -55 -122 -200 -19 -122 -39 -225 -44 -225 -4 0 -166 163 -197 197
-16 19 -45 41 -63 48 -32 14 -34 13 -39 -7 -8 -28 2 -75 19 -89 8 -6 14 -17
14 -25 0 -26 130 -100 210 -119 8 -2 38 -11 65 -19 41 -13 110 -16 381 -16
l331 0 12 24 c8 13 12 29 9 36 -2 6 -39 27 -82 46 -91 40 -185 100 -194 123
-3 9 -10 19 -16 23 -16 11 49 72 134 125 71 45 173 114 232 156 14 11 31 16
37 13 34 -22 185 -250 197 -299 6 -27 21 -44 30 -34 11 11 -93 211 -119 228
-5 4 -7 13 -5 20 5 14 78 -93 113 -166 17 -34 20 -37 23 -18 2 12 -11 48 -29
80 -18 32 -37 67 -43 78 -6 11 -17 24 -23 28 -7 4 -13 13 -13 19 0 6 -7 20
-17 30 -9 10 -13 21 -8 26 4 4 10 1 12 -6 3 -7 10 -18 16 -25 23 -25 57 -76
57 -87 0 -5 4 -10 8 -10 5 0 19 -24 33 -52 19 -43 24 -49 27 -30 4 28 -59 133
-170 280 -43 57 -76 108 -73 112 3 4 7 25 10 46 4 22 10 54 15 72 8 30 4 37
-17 30 -5 -2 -7 -6 -6 -10 2 -4 -3 -5 -10 -3 -6 3 -23 -2 -37 -10 -64 -37 -63
-37 -172 20 -57 29 -143 70 -193 90 -49 21 -97 43 -106 51 -8 8 -22 14 -30 14
-8 0 -1 11 16 26 43 35 48 39 65 47 8 4 29 16 45 27 17 11 39 24 50 29 34 17
70 49 63 56 -4 4 -38 -13 -75 -38 -110 -72 -234 -147 -244 -147 -16 0 -10 17
9 24 18 6 53 27 62 37 3 3 34 23 70 44 36 21 67 41 70 44 8 9 42 30 70 43 22
10 23 12 6 16 -10 2 -21 0 -25 -5 -7 -9 -35 -27 -66 -43 -11 -6 -33 -19 -50
-30 -16 -11 -38 -23 -47 -26 -10 -4 -18 -10 -18 -14 0 -4 -8 -10 -17 -14 -10
-3 -40 -19 -68 -36 -53 -31 -65 -35 -65 -21 0 4 37 29 83 55 80 45 139 85 126
86 -17 0 -229 -133 -224 -141 4 -5 1 -9 -4 -9 -6 0 -11 5 -11 10 0 6 -3 9 -7
8 -5 -1 -20 4 -34 10 -14 5 -48 13 -75 16 -34 4 -40 3 -19 -3 32 -8 75 -29 75
-36 0 -3 -10 0 -22 5 -13 5 -56 14 -96 19 -75 10 -167 47 -167 68 0 6 -4 15
-9 20 -5 5 -6 3 -2 -4 17 -30 -16 -9 -61 38 -26 28 -57 55 -68 61 -17 8 -17 6
2 -10z m697 -257 c3 -8 1 -15 -3 -15 -5 0 -11 7 -15 15 -3 8 -1 15 3 15 5 0
11 -7 15 -15z m137 -55 c12 0 126 -56 164 -80 17 -11 40 -24 53 -30 12 -5 22
-14 22 -20 0 -14 -16 -12 -29 4 -7 8 -23 17 -36 20 -14 4 -25 11 -25 16 0 6
-8 10 -19 10 -10 0 -24 7 -31 15 -7 8 -19 15 -26 15 -8 0 -22 4 -32 9 -9 5
-28 13 -42 19 -14 6 -44 18 -67 28 -23 10 -40 21 -37 25 2 5 25 -1 50 -11 25
-11 50 -20 55 -20z m-202 4 c20 -15 45 -39 55 -53 l19 -26 -29 26 c-16 14 -44
37 -62 52 -43 35 -31 35 17 1z m84 -34 c3 0 3 8 0 17 -5 12 -2 15 8 11 8 -3
46 -18 84 -33 39 -15 86 -35 105 -46 19 -10 47 -24 63 -30 15 -6 27 -15 27
-20 0 -12 -8 -11 -38 6 -76 41 -230 101 -238 92 -6 -6 48 -37 65 -37 18 0 181
-83 181 -92 0 -4 -17 -1 -37 7 l-38 15 24 -20 c22 -19 22 -22 10 -53 -8 -17
-12 -36 -11 -42 2 -5 1 -7 -3 -3 -4 3 -6 9 -6 13 1 3 -29 35 -66 70 l-68 65
-9 -37 c-5 -21 -17 -51 -27 -68 -11 -16 -23 -41 -29 -54 -6 -13 -13 -21 -16
-18 -3 3 1 18 9 34 48 90 73 183 50 183 -5 0 -24 15 -44 33 -19 17 -28 26 -19
20 9 -7 19 -13 23 -13z m-108 10 c3 -5 1 -10 -4 -10 -6 0 -11 5 -11 10 0 6 2
10 4 10 3 0 8 -4 11 -10z m-360 -30 c-3 -5 -12 -10 -18 -10 -7 0 -6 4 3 10 19
12 23 12 15 0z m75 -4 c0 -2 -7 -6 -15 -10 -8 -3 -15 -1 -15 4 0 6 7 10 15 10
8 0 15 -2 15 -4z m345 -22 c14 -14 24 -28 21 -31 -6 -7 -54 28 -60 45 -9 21
12 13 39 -14z m-465 -3 c0 -5 -8 -11 -17 -15 -10 -3 -31 -15 -48 -26 -16 -11
-38 -23 -47 -26 -10 -4 -18 -10 -18 -15 0 -5 -6 -9 -14 -9 -8 0 -22 -7 -30
-16 -9 -8 -16 -11 -16 -6 0 14 30 37 95 72 33 18 64 36 70 41 12 12 25 11 25
0z m75 0 c-6 -4 -63 -41 -128 -80 -86 -52 -114 -65 -100 -47 10 13 25 27 33
30 8 3 29 15 45 25 17 11 49 30 73 43 24 12 46 26 48 30 3 4 13 8 22 8 9 0 12
-3 7 -9z m460 -9 c-3 -3 -11 0 -18 7 -9 10 -8 11 6 5 10 -3 15 -9 12 -12z
m-892 -45 c-11 -12 -23 -31 -28 -42 -4 -12 -9 -15 -12 -8 -5 14 47 87 55 78 3
-3 -4 -15 -15 -28z m790 16 c18 -9 44 -25 59 -36 l27 -20 -19 -36 c-10 -20
-27 -48 -38 -64 l-19 -27 -22 82 c-12 46 -24 91 -27 101 -7 21 -1 21 39 0z
m97 -25 c0 -13 -23 -5 -28 10 -2 7 2 10 12 6 9 -3 16 -11 16 -16z m67 -35 c-8
-43 -25 -83 -38 -83 -6 0 -9 3 -7 8 24 45 38 85 33 92 -4 6 -1 10 5 10 7 0 9
-11 7 -27z m248 17 c3 -5 2 -10 -4 -10 -5 0 -13 5 -16 10 -3 6 -2 10 4 10 5 0
13 -4 16 -10z m60 0 c3 -5 1 -10 -4 -10 -6 0 -11 5 -11 10 0 6 2 10 4 10 3 0
8 -4 11 -10z m-1274 -43 c-8 -8 -11 -7 -11 4 0 20 13 34 18 19 3 -7 -1 -17 -7
-23z m1018 1 c14 -22 13 -22 -10 -7 -26 17 -38 42 -17 34 7 -3 20 -15 27 -27z
m-1048 -51 c-10 -9 -11 -8 -5 6 3 10 9 15 12 12 3 -3 0 -11 -7 -18z m990 -40
c-8 -8 -11 -7 -11 4 0 20 13 34 18 19 3 -7 -1 -17 -7 -23z m-42 1 c-9 -16 -14
-19 -17 -9 -2 7 2 17 9 22 20 13 21 11 8 -13z m-962 -10 c-3 -8 -6 -5 -6 6 -1
11 2 17 5 13 3 -3 4 -12 1 -19z m1448 2 c3 -5 1 -10 -4 -10 -6 0 -11 5 -11 10
0 6 2 10 4 10 3 0 8 -4 11 -10z m-127 -25 c-3 -3 -9 2 -12 12 -6 14 -5 15 5 6
7 -7 10 -15 7 -18z m-436 -7 c-7 -7 -12 -8 -12 -2 0 14 12 26 19 19 2 -3 -1
-11 -7 -17z m603 -26 c-8 -8 -25 10 -19 20 4 6 9 5 15 -3 4 -7 6 -15 4 -17z
m-560 8 c-3 -5 -11 -10 -16 -10 -6 0 -7 5 -4 10 3 6 11 10 16 10 6 0 7 -4 4
-10z m-49 -56 c-9 -9 -20 -14 -23 -10 -4 3 2 13 13 20 25 18 31 12 10 -10z
m609 -14 c3 -5 1 -10 -4 -10 -6 0 -11 5 -11 10 0 6 2 10 4 10 3 0 8 -4 11 -10z"/>
<path d="M558 1213 c-12 -3 -18 -20 -23 -64 -4 -33 -5 -63 -2 -65 7 -8 48 15
43 24 -2 4 0 29 4 55 7 50 5 56 -22 50z"/>
<path d="M2008 1193 c7 -3 16 -2 19 1 4 3 -2 6 -13 5 -11 0 -14 -3 -6 -6z"/>
<path d="M2050 1190 c0 -5 10 -10 23 -10 18 0 19 2 7 10 -19 13 -30 13 -30 0z"/>
<path d="M2375 1175 c17 -13 35 -24 40 -25 6 0 -3 11 -20 25 -16 13 -34 24
-40 25 -5 0 4 -11 20 -25z"/>
<path d="M288 1184 c-9 -8 3 -44 13 -38 11 7 12 44 1 44 -5 0 -11 -3 -14 -6z"/>
<path d="M500 1175 c0 -8 2 -15 4 -15 2 0 6 7 10 15 3 8 1 15 -4 15 -6 0 -10
-7 -10 -15z"/>
<path d="M1114 1175 c-8 -20 14 -90 37 -118 9 -12 22 -18 32 -14 14 5 13 14
-11 73 -29 70 -47 88 -58 59z"/>
<path d="M1030 1160 c0 -16 5 -21 23 -18 12 2 22 10 22 18 0 8 -10 16 -22 18
-18 3 -23 -2 -23 -18z"/>
<path d="M442 1145 c12 -27 16 -29 37 -16 12 8 12 12 2 25 -8 9 -22 16 -32 16
-16 0 -17 -3 -7 -25z"/>
<path d="M1268 1158 c7 -7 12 -21 12 -32 0 -19 1 -20 18 -3 16 17 16 19 -2 33
-24 17 -45 19 -28 2z"/>
<path d="M390 1140 c-22 -41 10 -90 59 -90 24 0 28 15 7 23 -8 3 -20 24 -27
46 -14 46 -23 51 -39 21z"/>
<path d="M600 1141 c0 -5 -3 -17 -6 -25 -5 -12 -2 -15 10 -10 18 7 21 29 6 39
-5 3 -10 2 -10 -4z"/>
<path d="M326 1108 c9 -31 9 -31 34 -23 20 6 21 8 4 26 -24 27 -47 25 -38 -3z"/>
<path d="M880 1110 c0 -11 7 -20 15 -20 8 0 15 9 15 20 0 11 -7 20 -15 20 -8
0 -15 -9 -15 -20z"/>
<path d="M1054 1124 c-8 -4 -6 -21 8 -57 24 -62 21 -59 42 -51 20 8 20 18 0
71 -16 41 -25 47 -50 37z"/>
<path d="M282 1108 c-32 -32 0 -98 48 -98 22 0 22 1 7 18 -10 10 -17 25 -17
33 -1 8 -6 24 -13 37 -10 17 -15 20 -25 10z"/>
<path d="M836 1104 c-10 -26 -7 -46 16 -106 21 -53 42 -71 60 -52 4 3 -7 42
-23 86 -16 45 -29 83 -29 85 0 10 -19 1 -24 -13z"/>
<path d="M82 1093 c-10 -4 -7 -9 8 -20 25 -18 35 -13 17 9 -6 9 -18 13 -25 11z"/>
<path d="M974 1094 c-17 -7 33 -104 55 -104 28 0 30 8 9 53 -25 52 -38 62 -64
51z"/>
<path d="M2340 1090 c0 -5 5 -10 11 -10 5 0 7 5 4 10 -3 6 -8 10 -11 10 -2 0
-4 -4 -4 -10z"/>
<path d="M220 1071 c0 -15 6 -21 21 -21 25 0 22 33 -4 38 -12 2 -17 -3 -17
-17z"/>
<path d="M2395 1080 c4 -6 11 -8 16 -5 14 9 11 15 -7 15 -8 0 -12 -5 -9 -10z"/>
<path d="M17 1063 c-10 -11 -17 -35 -17 -57 0 -45 36 -86 75 -86 l27 0 -26 30
c-22 26 -30 52 -39 119 -1 9 -7 8 -20 -6z"/>
<path d="M937 1074 c-4 -4 -7 -16 -7 -26 0 -20 25 -25 36 -7 8 13 -19 43 -29
33z"/>
<path d="M158 1064 c-5 -4 26 -90 38 -102 1 -2 11 -1 21 2 19 6 19 8 4 56 -12
39 -21 50 -37 50 -11 0 -23 -3 -26 -6z"/>
<path d="M786 1021 c-3 -4 1 -17 9 -27 10 -15 16 -16 26 -7 6 6 9 19 6 27 -7
17 -32 22 -41 7z"/>
<path d="M950 1015 c-16 -19 -6 -45 18 -45 27 0 32 9 20 36 -13 28 -21 30 -38
9z"/>
<path d="M734 997 c-3 -8 3 -34 13 -59 16 -39 21 -44 39 -38 21 8 21 9 5 59
-11 36 -21 51 -34 51 -10 0 -20 -6 -23 -13z"/>
<path d="M137 969 c-7 -27 -1 -37 14 -22 7 7 8 17 2 28 -9 15 -11 15 -16 -6z"/>
<path d="M650 971 c0 -19 40 -101 49 -101 5 0 16 3 24 6 23 8 -26 104 -53 104
-11 0 -20 -4 -20 -9z"/>
<path d="M2355 970 c-8 -13 5 -13 25 0 13 8 13 10 -2 10 -9 0 -20 -4 -23 -10z"/>
<path d="M613 944 c-7 -20 8 -36 25 -25 14 8 6 41 -9 41 -5 0 -12 -7 -16 -16z"/>
<path d="M2300 950 c0 -5 7 -7 15 -4 8 4 15 8 15 10 0 2 -7 4 -15 4 -8 0 -15
-4 -15 -10z"/>
<path d="M537 934 c-3 -4 0 -13 8 -21 8 -8 18 -32 21 -53 6 -35 9 -38 25 -29
23 12 25 56 3 87 -14 21 -44 29 -57 16z"/>
<path d="M2248 933 c7 -3 16 -2 19 1 4 3 -2 6 -13 5 -11 0 -14 -3 -6 -6z"/>
<path d="M2195 920 c-3 -6 1 -7 9 -4 18 7 21 14 7 14 -6 0 -13 -4 -16 -10z"/>
<path d="M483 914 c-14 -6 40 -159 56 -158 31 3 32 5 26 37 -4 17 -11 37 -15
42 -5 6 -12 26 -17 45 -9 33 -25 44 -50 34z"/>
<path d="M2250 910 c-9 -6 -10 -10 -3 -10 6 0 15 5 18 10 8 12 4 12 -15 0z"/>
<path d="M630 895 c-16 -19 -6 -45 18 -45 27 0 32 9 20 36 -13 28 -21 30 -38
9z"/>
<path d="M2135 900 c-3 -5 -2 -10 4 -10 5 0 13 5 16 10 3 6 2 10 -4 10 -5 0
-13 -4 -16 -10z"/>
<path d="M2088 873 c7 -3 16 -2 19 1 4 3 -2 6 -13 5 -11 0 -14 -3 -6 -6z"/>
<path d="M960 856 c-18 -22 -5 -48 22 -44 17 2 23 10 23 28 0 29 -26 38 -45
16z"/>
<path d="M1224 814 c8 -27 -24 -69 -59 -78 -14 -4 -43 -2 -65 4 -48 13 -85 -2
-102 -41 -12 -27 -15 -28 -63 -23 -55 7 -59 4 -117 -79 -26 -37 -65 -43 -101
-16 l-30 22 6 -38 c10 -62 73 -115 137 -115 45 0 106 35 135 77 14 21 25 42
25 48 1 29 16 36 53 20 131 -54 261 39 227 164 -5 21 -20 46 -31 57 -21 19
-22 19 -15 -2z"/>
<path d="M810 785 c-17 -21 -8 -50 17 -53 30 -4 49 31 27 52 -19 20 -28 20
-44 1z"/>
<path d="M2651 688 c-1 -36 19 -130 30 -142 13 -14 11 -4 -10 89 -11 44 -20
68 -20 53z"/>
</g>
</svg>
